<?xml version="1.0" encoding="utf-8"?>
<!-- Generator: Adobe Illustrator 28.3.0, SVG Export Plug-In . SVG Version: 6.00 Build 0)  -->
<svg version="1.1" xmlns="http://www.w3.org/2000/svg" xmlns:xlink="http://www.w3.org/1999/xlink" x="0px" y="0px"
	 viewBox="0 0 467.67 274.13" style="enable-background:new 0 0 467.67 274.13;" xml:space="preserve">
<style type="text/css">
	.st0{display:none;}
	.st1{fill:#231F20;}
	.st2{display:inline;stroke:#000000;stroke-miterlimit:10;}
	.st3{display:inline;opacity:0.55;fill:url(#SVGID_1_);}
	.st4{display:inline;filter:url(#Adobe_OpacityMaskFilter);}
	.st5{fill:url(#SVGID_00000116916897177951263890000015182638886557974439_);}
	.st6{display:inline;mask:url(#SVGID_00000000927634083379002000000014865304981940519072_);}
	.st7{fill:#F9F6EF;}
	.st8{fill:#69181C;}
	.st9{fill:#C19D86;}
	.st10{fill:#4A3B35;}
	.st11{fill:none;stroke:#4D0E0F;stroke-miterlimit:10;}
	.st12{fill:none;stroke:#91624F;stroke-miterlimit:10;}
	.st13{fill:none;stroke:#3C2F2A;stroke-miterlimit:10;}
	.st14{fill:none;stroke:#C6BFB1;stroke-miterlimit:10;}
</style>
<g id="Layer_14" class="st0">
</g>
<g id="text">
	<g>
		<path class="st1" d="M140.7,117.89c6.94-0.11,12.46-0.65,18.1-1.41c9.21-1.3,18.32-3.03,27.2-5.53c8.56-2.28,17.01-5.2,24.92-9.32
			c3.03-1.63,5.96-3.47,8.45-6.07c0.98-1.08,1.73-2.28,2.28-3.58c0.76-1.52,0.54-3.04-0.54-4.44c-1.73-1.95-3.79-3.47-6.07-4.66
			c-4.12-2.38-8.67-3.79-13.33-4.88c-6.94-1.63-13.98-2.38-21.02-3.25c-5.74-0.76-11.38-1.3-16.91-3.03
			c-1.73-0.43-3.36-1.08-4.88-1.95c-5.74-2.93-9-7.69-9.65-14.09c-0.22-2.38,0.43-4.55,1.41-6.72c1.52-3.14,3.58-6.07,5.85-8.67
			c5.96-7.15,13.22-12.79,21.13-17.45c7.37-4.34,15.06-7.69,23.52-9.43c5.42-1.08,10.95-1.41,16.36-0.22
			c2.49,0.54,4.88,1.41,6.39,3.79c0.65,0.98,1.08,2.06,1.3,3.25c0.11,0.43,0.22,0.87,0,1.3c-0.22,0.43-0.65,0.65-0.98,0.33
			c-1.52-1.84-3.69-1.52-5.64-1.52c-6.29-0.22-12.46,0.54-18.42,2.17c-14.31,3.79-26.55,11.05-36.85,21.57
			c-2.82,2.93-5.42,6.07-7.15,9.86c-0.76,1.52-1.3,3.14-1.52,4.88c-0.22,1.84,0.33,3.25,1.95,4.23c2.38,1.41,4.88,2.17,7.48,2.93
			c4.77,1.41,9.65,2.06,14.52,2.71c8.35,1.08,16.69,2.06,24.82,4.23c4.01,0.98,7.8,2.28,11.38,4.23c4.23,2.38,7.8,5.53,9.97,9.97
			c2.6,5.53,1.73,10.94-2.49,15.39c-2.6,2.71-5.64,4.66-8.89,6.39c-6.94,3.58-14.31,5.85-21.89,7.8
			c-8.45,2.17-17.12,3.58-25.79,4.66c-6.61,0.87-13.22,1.52-19.94,1.52c-3.58-0.11-7.04-0.33-10.51-1.3
			c-4.01-1.08-7.48-2.93-9.65-6.61c-1.84-3.25-2.06-6.5-0.22-9.75c1.19-2.28,2.93-4.12,4.88-5.74c5.09-4.33,11.05-7.26,17.23-9.64
			c8.34-3.03,16.9-4.88,25.68-5.85c7.26-0.76,14.41-1.41,21.67-1.73c3.69-0.22,7.37,0,10.95,0.54c0.65,0.11,1.3,0.33,1.73,0.87
			c0.22,0.22,0.33,0.54,0.22,0.87c-0.11,0.33-0.43,0.33-0.65,0.33c-0.33,0-0.54,0-0.87,0c-4.99-0.65-9.97-0.22-15.06,0.22
			c-5.31,0.54-10.62,1.19-15.93,2.17c-11.16,1.95-22.11,4.88-32.4,10.08c-4.12,2.06-8.02,4.44-11.16,7.8
			c-1.08,1.19-2.06,2.38-2.82,3.68c-0.54,1.19-0.98,2.28-0.98,3.58c0,1.73,0.76,2.82,2.17,3.58c1.08,0.65,2.28,0.98,3.58,1.19
			C136.37,117.67,139.19,118,140.7,117.89z"/>
		<path class="st1" d="M262.95,71.4c-2.17,2.6-3.69,5.42-5.31,8.34c-1.95,3.36-3.68,6.83-5.85,9.97c-1.3,1.84-2.6,3.58-4.12,5.2
			c-1.84,1.73-3.79,2.17-6.18,1.3c-2.82-1.08-4.66-2.93-5.2-6.07c-0.54-3.69-0.11-7.37,0.54-11.05c1.41-7.8,4.23-15.06,7.91-22
			c0.22-0.33,0.43-0.76,0.65-1.08c0.43-0.65,0.98-0.87,1.73-0.76c2.17,0.33,3.9,1.52,5.09,3.47c0.54,0.87,0.43,1.84,0.33,2.82
			c-0.43,1.73-0.98,3.25-1.52,4.88c-2.06,5.64-4.12,11.27-5.42,17.23c-0.54,2.17-0.87,4.33-1.08,6.61c-0.11,0.33,0,0.65,0,0.98
			c0.76,0.11,1.19-0.43,1.63-0.87c2.38-2.06,4.34-4.44,6.07-7.04c1.84-2.82,3.58-5.64,5.42-8.45c2.49-4.01,5.2-7.91,8.02-11.81
			c1.52-2.17,2.93-4.34,4.44-6.5c1.08-1.63,1.41-1.73,2.6-1.3c1.3,0.54,2.28,1.84,2.06,3.14c-0.11,1.41-0.54,2.71-0.98,4.01
			c-1.19,3.36-2.17,6.72-2.93,10.19c-0.87,4.66-1.08,9.32-0.87,13.87c0.11,1.84,0.54,3.47,1.19,5.09c0.76,1.84,1.08,1.84,2.28,0.43
			c1.63-2.06,3.04-4.12,4.23-6.39c2.71-4.77,5.2-9.54,7.8-14.31c3.03-5.2,6.07-10.4,9.86-15.06c3.04-3.9,6.72-6.94,10.95-9.54
			c0.65-0.43,1.3-0.76,2.06-0.98c0.43-0.11,0.98-0.22,1.41,0c0.76,0.33,0.87,0.98,0.22,1.41c-8.02,5.64-13,13.76-17.55,22.11
			c-3.25,5.96-6.07,12.03-9,18.1c-1.08,2.49-2.38,4.88-3.9,7.15c-2.17,3.36-4.55,4.77-9.43,2.82c-5.31-2.28-7.8-6.5-8.45-12.03
			c-0.43-4.12,0-8.02,0.87-12.03C262.62,72.59,262.73,71.94,262.95,71.4z"/>
		<path class="st1" d="M298.27,104.13c0,1.3,0.22,2.93,0.76,4.55c0.22,0.33,0.33,0.76,0.54,1.08c0.76,1.08,1.19,1.19,2.28,0.43
			c3.14-2.38,5.74-5.2,7.8-8.56c2.38-4.12,4.88-8.24,7.15-12.35c1.73-2.93,3.9-5.42,6.29-7.69c2.06-1.95,4.55-3.04,7.15-4.01
			c0.54-0.11,1.19-0.22,1.73-0.11c0.33,0,0.76,0.11,0.76,0.54c0,0.33-0.22,0.43-0.54,0.54c0,0.11-0.11,0.11-0.22,0.22
			c-5.42,2.06-9.1,6.07-12.14,10.84c-2.6,4.12-4.88,8.45-7.15,12.68c-1.41,2.38-2.93,4.66-4.77,6.72c-0.87,0.98-1.84,1.84-2.93,2.6
			c-3.36,2.6-9.86,1.95-11.92-3.25c-0.98-2.49-1.3-5.09-0.98-7.8c0.65-8.78,3.47-17.01,8.02-24.49c2.82-4.66,6.18-8.78,10.73-11.81
			c2.38-1.52,4.77-2.38,7.59-2.28c1.73,0.11,3.36,0.76,4.55,2.06c1.3,1.19,1.52,2.71,0.87,4.34c-0.87,1.95-2.17,3.68-3.69,5.09
			c-1.52,1.41-3.14,2.6-4.88,3.68c-2.38,1.52-4.88,2.28-7.7,1.63c-0.76-0.22-1.19,0.22-1.52,0.76c-1.63,2.71-2.93,5.53-4.12,8.45
			c-1.63,4.23-2.93,8.45-3.47,12.9C298.38,101.85,298.27,102.72,298.27,104.13z M308.68,77.47c1.19,0,2.17-0.33,3.04-0.87
			c3.25-1.84,5.96-4.34,8.02-7.59c0.43-0.76,0.76-1.63,0.98-2.6c0.11-0.54-0.22-0.76-0.76-0.65c-0.87,0.22-1.73,0.65-2.49,1.19
			c-3.79,2.49-6.72,5.85-9.43,9.54c-0.11,0.22-0.33,0.43-0.22,0.76C308.03,77.58,308.46,77.47,308.68,77.47z"/>
		<path class="st1" d="M378.14,50.7c-0.98-0.22-1.63,0-2.06,0.76c-0.43,0.65-0.76,1.3-1.08,1.95c-4.44,8.78-8.78,17.56-13.22,26.33
			c-3.9,7.8-8.24,15.39-13.65,22.32c-2.28,2.82-4.66,5.53-7.59,7.69c-0.54,0.43-1.19,0.87-1.95,1.19
			c-5.42,3.03-12.35,1.3-15.61-4.12c-1.73-2.82-1.95-5.96-1.63-9.21c0.87-6.72,3.58-12.68,7.26-18.21c2.93-4.55,6.4-8.45,10.73-11.7
			c2.82-2.06,5.96-3.69,9.43-4.44c1.52-0.33,3.04-0.22,4.44,0.54c2.6,1.52,3.47,4.01,2.06,6.72c-1.3,2.38-3.14,4.23-5.2,6.07
			c-2.06,1.73-4.23,3.36-6.61,4.77c-2.71,1.41-5.42,2.49-8.45,2.28c-0.87-0.11-1.41,0.33-1.84,1.08c-2.28,4.33-4.12,8.78-4.77,13.65
			c-0.33,2.49-0.33,5.09,0.33,7.48c0.76,2.71,1.73,3.14,4.33,1.95c3.9-1.84,6.94-4.66,9.75-7.8c6.72-7.26,11.81-15.61,16.58-24.17
			c4.12-7.48,8.24-15.06,12.35-22.54c0.43-0.76,0.98-1.41,0.98-2.49c-2.06,0.33-4.12,0.33-6.18,0.54
			c-3.47,0.22-6.83,0.54-10.19,0.76c-4.77,0.43-9.64,0.76-14.52,0.87c-2.71,0.11-5.42-0.11-8.13-0.43
			c-0.65-0.11-1.08-0.33-1.52-0.65c-0.98-0.98-0.76-2.06,0.54-2.38c0.87-0.22,1.73-0.33,2.6-0.43c6.61-0.43,13.33-0.98,20.05-1.19
			c5.96-0.33,11.81-0.54,17.77-0.43c1.41,0,2.28-0.43,2.93-1.73c2.6-4.34,5.42-8.56,8.89-12.35c1.19-1.41,2.6-2.71,4.01-3.79
			c0.54-0.33,1.08-0.65,1.63-0.87c1.63-0.65,3.25,0.54,3.14,2.38c-0.11,0.76-0.43,1.52-0.76,2.28c-1.08,2.71-2.6,5.2-4.12,7.69
			c-0.87,1.52-1.73,3.14-2.6,4.66c-0.65,1.19-0.54,1.41,0.76,1.52c2.93,0,5.74,0.11,8.56,0.22c2.28,0,4.44,0.22,6.72,0.33
			c0.87,0.11,1.63,0.22,2.06,1.08c0.43,0.65,0.22,1.19-0.54,1.3c-0.43,0-0.76,0-1.19,0c-5.64-0.22-11.27,0.11-16.91,0
			c-1.52,0-2.38,0.65-3.03,1.95c-3.25,6.28-6.4,12.79-9.1,19.29c-4.23,9.64-8.35,19.29-11.81,29.15c-2.6,7.59-5.09,15.28-6.94,23.08
			c-0.11,0.54-0.22,1.08-0.43,1.63c-0.33,0.87-0.65,1.08-1.41,0.98c-0.76-0.22-1.19-0.76-1.08-1.63c0.22-1.3,0.43-2.6,0.65-3.9
			c1.52-7.48,3.58-14.74,5.64-22c2.93-10.08,6.39-19.94,10.62-29.48c2.49-5.42,4.99-10.73,7.91-15.82
			C377.27,52.54,377.81,51.78,378.14,50.7z M352.46,67.06c-5.96,0.54-14.96,9.86-16.91,14.31
			C340.21,81.26,351.37,71.94,352.46,67.06z M391.25,31.19c-4.34,2.49-11.92,13.44-12.46,16.04c1.19,0.43,1.73-0.22,2.38-1.08
			c2.49-4.12,5.31-8.02,8.13-11.92C389.95,33.25,390.6,32.28,391.25,31.19z"/>
	</g>
	<g>
		<path class="st1" d="M25.52,196.56c6.94-0.11,12.46-0.65,18.1-1.41c9.21-1.3,18.31-3.03,27.2-5.53c8.56-2.28,17.01-5.2,24.93-9.32
			c3.03-1.63,5.96-3.47,8.45-6.07c0.98-1.08,1.73-2.28,2.28-3.58c0.76-1.52,0.54-3.04-0.54-4.44c-1.73-1.95-3.79-3.47-6.07-4.66
			c-4.12-2.38-8.67-3.79-13.33-4.88c-6.94-1.63-13.98-2.38-21.02-3.25c-5.75-0.76-11.38-1.3-16.91-3.03
			c-1.73-0.43-3.36-1.08-4.88-1.95c-5.74-2.93-9-7.69-9.65-14.09c-0.22-2.38,0.43-4.55,1.41-6.72c1.52-3.14,3.58-6.07,5.85-8.67
			c5.96-7.15,13.22-12.79,21.13-17.45c7.37-4.34,15.06-7.69,23.52-9.43c5.42-1.08,10.94-1.41,16.36-0.22
			c2.49,0.54,4.88,1.41,6.39,3.79c0.65,0.98,1.08,2.06,1.3,3.25c0.11,0.43,0.22,0.87,0,1.3c-0.22,0.43-0.65,0.65-0.98,0.33
			c-1.52-1.84-3.69-1.52-5.64-1.52c-6.29-0.22-12.46,0.54-18.42,2.17c-14.31,3.79-26.55,11.05-36.85,21.57
			c-2.82,2.93-5.42,6.07-7.15,9.86c-0.76,1.52-1.3,3.14-1.52,4.88c-0.22,1.84,0.33,3.25,1.95,4.23c2.38,1.41,4.88,2.17,7.48,2.93
			c4.77,1.41,9.65,2.06,14.52,2.71c8.35,1.08,16.69,2.06,24.82,4.23c4.01,0.98,7.8,2.28,11.38,4.23c4.23,2.38,7.8,5.53,9.97,9.97
			c2.6,5.53,1.73,10.94-2.49,15.39c-2.6,2.71-5.64,4.66-8.89,6.39c-6.94,3.58-14.3,5.85-21.89,7.8c-8.45,2.17-17.12,3.58-25.79,4.66
			c-6.61,0.87-13.22,1.52-19.94,1.52c-3.58-0.11-7.04-0.33-10.51-1.3c-4.01-1.08-7.48-2.93-9.65-6.61c-1.84-3.25-2.06-6.5-0.22-9.75
			c1.19-2.28,2.93-4.12,4.88-5.74c5.09-4.33,11.05-7.26,17.23-9.64c8.34-3.03,16.9-4.88,25.68-5.85c7.26-0.76,14.41-1.41,21.67-1.73
			c3.68-0.22,7.37,0,10.94,0.54c0.65,0.11,1.3,0.33,1.73,0.87c0.22,0.22,0.33,0.54,0.22,0.87c-0.11,0.33-0.43,0.33-0.65,0.33
			c-0.33,0-0.54,0-0.87,0c-4.99-0.65-9.97-0.22-15.06,0.22c-5.31,0.54-10.62,1.19-15.93,2.17c-11.16,1.95-22.11,4.88-32.4,10.08
			c-4.12,2.06-8.02,4.44-11.16,7.8c-1.08,1.19-2.06,2.38-2.82,3.68c-0.54,1.19-0.98,2.28-0.98,3.58c0,1.73,0.76,2.82,2.17,3.58
			c1.08,0.65,2.28,0.98,3.58,1.19C21.19,196.34,24.01,196.67,25.52,196.56z"/>
		<path class="st1" d="M128.69,169.9c2.17-1.63,4.01-3.69,5.96-5.74c5.96-6.39,11.49-13,17.34-19.51c1.63-1.63,3.36-3.25,5.2-4.66
			c1.3-0.98,2.06-0.87,3.25,0.22c1.08,1.08,1.41,2.38,1.19,3.9c-0.33,1.84-1.08,3.47-1.84,5.2c-2.06,4.34-4.23,8.56-6.18,12.9
			c-3.36,7.48-6.5,15.06-8.35,23.08c-1.19,4.88-1.95,9.86-1.84,14.96c0,0.87,0,1.84,0.22,2.71c0.33,1.41,0.76,1.63,2.17,0.98
			c1.52-0.76,2.82-1.84,4.01-3.04c4.88-4.77,8.56-10.4,10.84-16.8c1.73-5.31,3.69-10.51,6.29-15.5c1.73-3.58,3.9-6.83,6.5-9.86
			c0.87-1.08,1.84-1.95,2.93-2.82c0.33-0.22,0.76-0.43,1.08-0.65c0.54-0.22,1.08-0.22,1.41,0.22c0.22,0.54-0.22,0.76-0.54,1.08
			c-3.58,3.58-6.5,7.69-8.89,12.14c-2.06,3.79-3.69,7.69-4.99,11.7c-1.19,3.47-2.38,6.94-3.9,10.3c-2.06,4.44-4.55,8.45-7.7,12.14
			c-1.19,1.3-2.49,2.38-3.9,3.25c-3.9,2.49-8.78,0.87-10.4-3.47c-1.08-2.82-1.3-5.85-1.08-8.78c0.65-10.73,3.36-21.13,7.37-31.1
			c1.52-3.79,3.25-7.37,5.31-10.94c0.33-0.43,0.54-0.87,0.87-1.52c-0.65,0.22-0.87,0.76-1.19,1.08
			c-4.44,5.53-8.67,11.27-13.01,16.91c-1.41,1.84-2.82,3.69-4.55,5.31c-0.54,0.54-1.08,1.08-1.73,1.52
			c-1.41,1.08-2.93,1.19-4.55,0.54c-3.69-1.19-6.07-4.55-6.07-8.45c0-1.63,0.11-3.25,0.54-4.88c1.41-6.07,3.47-12.03,6.28-17.66
			c0.54-1.08,1.08-2.06,1.84-2.93c0.54-0.87,1.41-1.08,2.38-0.87c2.06,0.43,3.79,1.3,5.09,3.04c0.87,1.19,1.19,2.49,0.54,4.01
			c-1.3,3.03-2.49,6.07-3.79,8.99c-1.63,3.69-3.04,7.37-4.12,11.16c-0.11,0.54-0.22,1.08-0.33,1.63
			C128.48,169.79,128.58,169.79,128.69,169.9z"/>
		<path class="st1" d="M200.11,147.36c-1.73,1.63-2.93,3.14-4.12,4.55c-4.77,5.96-8.89,12.46-12.57,19.18
			c-2.06,4.01-4.23,8.02-6.07,12.14c-0.33,0.76-0.87,1.52-1.19,2.17c-0.65,1.3-1.73,1.63-3.04,1.52c-1.63-0.11-3.14-0.65-4.44-1.63
			c-1.41-0.87-1.52-2.38-1.52-3.9c0.11-1.95,0.54-3.9,1.08-5.74c2.17-9.32,5.09-18.31,8.89-27.09c1.3-2.93,2.82-5.63,4.55-8.34
			c0.54-0.76,1.08-1.52,1.73-2.17c1.3-1.19,2.71-1.3,4.23-0.54c1.41,0.76,2.06,2.06,1.73,3.79c-0.65,2.93-1.73,5.64-2.82,8.34
			c-1.3,3.58-2.6,7.15-3.9,10.62c-0.11,0.33-0.22,0.65-0.33,0.98c0.54,0,0.65-0.43,0.87-0.76c3.79-5.64,7.8-11.05,12.14-16.26
			c1.19-1.3,2.38-2.6,3.69-3.79c1.19-1.19,2.6-1.41,4.23-0.76c2.6,0.87,3.9,2.93,3.36,5.64c-0.22,1.84-0.54,3.58-0.87,5.31
			c-0.22,1.08-0.33,2.17-0.22,3.36c0,1.52,0.22,1.84,1.73,1.84c1.95,0,3.9-0.11,5.96-0.11c0.11,0,0.11-0.11,0.22-0.11
			c0.65,0,1.41,0,1.52,0.65c0.11,0.87-0.65,0.87-1.3,0.98c-1.63,0.33-3.36,0.65-5.09,1.19c-1.19,0.33-2.49,0.33-3.68-0.33
			c-2.82-1.41-4.66-3.58-4.77-6.83C200.11,150.07,200.11,148.99,200.11,147.36z"/>
		<path class="st1" d="M237.17,147.36c-1.73,1.63-2.93,3.14-4.12,4.55c-4.77,5.96-8.89,12.46-12.57,19.18
			c-2.06,4.01-4.23,8.02-6.07,12.14c-0.33,0.76-0.87,1.52-1.19,2.17c-0.65,1.3-1.73,1.63-3.04,1.52c-1.63-0.11-3.14-0.65-4.44-1.63
			c-1.41-0.87-1.52-2.38-1.52-3.9c0.11-1.95,0.54-3.9,1.08-5.74c2.17-9.32,5.09-18.31,8.89-27.09c1.3-2.93,2.82-5.63,4.55-8.34
			c0.54-0.76,1.08-1.52,1.73-2.17c1.3-1.19,2.71-1.3,4.23-0.54c1.41,0.76,2.06,2.06,1.73,3.79c-0.65,2.93-1.73,5.64-2.82,8.34
			c-1.3,3.58-2.6,7.15-3.9,10.62c-0.11,0.33-0.22,0.65-0.33,0.98c0.54,0,0.65-0.43,0.87-0.76c3.79-5.64,7.8-11.05,12.14-16.26
			c1.19-1.3,2.38-2.6,3.69-3.79c1.19-1.19,2.6-1.41,4.23-0.76c2.6,0.87,3.9,2.93,3.36,5.64c-0.22,1.84-0.54,3.58-0.87,5.31
			c-0.22,1.08-0.33,2.17-0.22,3.36c0,1.52,0.22,1.84,1.73,1.84c1.95,0,3.9-0.11,5.96-0.11c0.11,0,0.11-0.11,0.22-0.11
			c0.65,0,1.41,0,1.52,0.65c0.11,0.87-0.65,0.87-1.3,0.98c-1.63,0.33-3.36,0.65-5.09,1.19c-1.19,0.33-2.49,0.33-3.68-0.33
			c-2.82-1.41-4.66-3.58-4.77-6.83C237.17,150.07,237.17,148.99,237.17,147.36z"/>
		<path class="st1" d="M247.25,182.8c0,1.3,0.22,2.93,0.76,4.55c0.22,0.33,0.33,0.76,0.54,1.08c0.76,1.08,1.19,1.19,2.28,0.43
			c3.14-2.38,5.74-5.2,7.8-8.56c2.38-4.12,4.88-8.24,7.15-12.35c1.73-2.93,3.9-5.42,6.29-7.69c2.06-1.95,4.55-3.04,7.15-4.01
			c0.54-0.11,1.19-0.22,1.73-0.11c0.33,0,0.76,0.11,0.76,0.54c0,0.33-0.22,0.43-0.54,0.54c0,0.11-0.11,0.11-0.22,0.22
			c-5.42,2.06-9.1,6.07-12.14,10.84c-2.6,4.12-4.88,8.45-7.15,12.68c-1.41,2.38-2.93,4.66-4.77,6.72c-0.87,0.98-1.84,1.84-2.93,2.6
			c-3.36,2.6-9.86,1.95-11.92-3.25c-0.98-2.49-1.3-5.09-0.98-7.8c0.65-8.78,3.47-17.01,8.02-24.49c2.82-4.66,6.18-8.78,10.73-11.81
			c2.38-1.52,4.77-2.38,7.59-2.28c1.73,0.11,3.36,0.76,4.55,2.06c1.3,1.19,1.52,2.71,0.87,4.34c-0.87,1.95-2.17,3.68-3.69,5.09
			c-1.52,1.41-3.14,2.6-4.88,3.68c-2.38,1.52-4.88,2.28-7.7,1.63c-0.76-0.22-1.19,0.22-1.52,0.76c-1.63,2.71-2.93,5.53-4.12,8.45
			c-1.63,4.23-2.93,8.45-3.47,12.9C247.36,180.52,247.25,181.39,247.25,182.8z M257.65,156.14c1.19,0,2.17-0.33,3.04-0.87
			c3.25-1.84,5.96-4.34,8.02-7.59c0.43-0.76,0.76-1.63,0.98-2.6c0.11-0.54-0.22-0.76-0.76-0.65c-0.87,0.22-1.73,0.65-2.49,1.19
			c-3.79,2.49-6.72,5.85-9.43,9.54c-0.11,0.22-0.33,0.43-0.22,0.76C257,156.25,257.43,156.14,257.65,156.14z"/>
		<path class="st1" d="M287.02,165.68c0.98-0.43,1.3-0.98,1.73-1.41c5.96-5.85,11.59-11.92,17.45-17.77c2.6-2.6,5.42-4.98,8.56-6.94
			c0.76-0.54,1.63-1.08,2.49-1.52c2.38-1.19,4.55-0.65,6.29,1.41c1.41,1.84,1.84,3.79,1.41,6.07c-0.65,3.14-1.95,5.96-3.36,8.89
			c-3.47,7.37-6.94,14.85-10.19,22.32c-1.3,3.14-2.49,6.18-3.47,9.43c-0.65,2.38-0.98,4.88-0.87,7.48c0,1.63,0.22,1.73,1.63,0.98
			c4.88-2.6,8.78-6.29,12.25-10.51c4.12-4.99,7.26-10.62,10.51-16.04c2.82-4.55,5.53-9.21,8.78-13.44c0.54-0.65,1.08-1.19,1.73-1.84
			c0.33-0.22,0.65-0.43,1.08-0.54c0.43-0.11,0.76,0,1.08,0.33c0.11,0.33,0,0.65-0.22,0.87c-0.65,0.98-1.3,1.95-1.95,2.93
			c-4.33,6.83-8.45,13.87-12.57,20.92c-3.36,5.63-7.26,10.94-11.81,15.6c-1.63,1.63-3.47,3.14-5.31,4.55
			c-4.12,2.93-9.21,1.73-11.6-2.93c-1.41-2.82-1.73-5.85-1.19-8.89c1.63-9.43,4.98-18.21,9.21-26.77c2.38-4.88,4.88-9.65,7.69-14.31
			c0.33-0.54,0.65-1.19,1.08-1.95c-0.54-0.11-0.87,0.22-1.19,0.43c-2.82,1.52-5.2,3.47-7.48,5.53c-3.79,3.58-7.37,7.37-10.62,11.38
			c-4.23,5.2-8.35,10.4-12.57,15.6c-1.73,1.95-3.04,2.38-5.53,1.52c-0.33,0-0.54-0.11-0.76-0.22c-3.58-1.41-5.09-4.01-4.34-7.69
			c1.95-9.32,5.09-18.1,10.51-25.9c1.08-1.63,2.38-3.04,3.69-4.44c2.38-2.49,5.09-2.06,7.69-0.22c0.33,0.22,0.54,0.43,0.76,0.76
			c1.08,0.98,1.3,2.17,0.76,3.58c-0.87,2.06-1.84,4.12-2.82,6.07c-2.6,4.88-5.31,9.64-7.8,14.63
			C287.56,164.27,287.13,164.81,287.02,165.68z"/>
		<path class="st1" d="M351.28,169.47c-0.43,0.65-0.87,1.3-1.19,1.95c-1.84,2.71-3.79,5.2-6.5,7.15c-1.52,1.08-3.14,1.41-4.88,0.87
			c-3.04-0.87-4.34-2.49-4.44-5.74c0-1.52,0.33-3.03,0.65-4.55c1.41-6.72,3.9-13,7.91-18.75c0.76-0.98,1.73-1.95,2.71-2.82
			c3.47-3.14,7.48-4.01,11.92-2.38c1.19,0.43,1.19,0.43,1.73-0.76c1.41-3.36,2.93-6.61,4.66-9.86c3.36-6.61,7.37-12.79,12.46-17.99
			c3.69-3.9,7.8-7.26,12.9-9.1c1.19-0.43,2.38-0.76,3.68-0.98c0.98-0.22,2.06-0.22,3.04,0.11c3.58,0.87,5.42,3.79,4.55,7.48
			c-0.43,1.84-1.3,3.68-2.28,5.31c-6.61,11.27-15.5,20.27-26.55,26.98c-1.84,1.08-3.79,2.06-5.85,2.6
			c-0.98,0.22-1.41,0.76-1.73,1.63c-3.36,8.99-5.96,18.1-7.59,27.53c-0.54,3.03-0.87,6.18-1.08,9.21c-0.11,2.6,0.11,5.09,0.65,7.59
			c0.22,0.98,0.65,2.06,1.3,2.93c0.98,1.52,1.84,1.63,3.25,0.54c1.63-1.41,3.04-3.04,4.12-5.09c1.3-2.49,2.17-5.2,2.82-7.91
			c1.19-4.66,2.93-9.1,4.77-13.44c2.49-5.85,5.96-11.16,11.05-15.06c0.65-0.43,1.19-0.98,1.95-1.08c0.33-0.11,0.65,0,0.76,0.22
			c0.22,0.33-0.11,0.54-0.33,0.65c-1.52,1.3-2.93,2.82-4.23,4.33c-3.9,4.77-6.72,10.08-8.78,15.82c-1.19,3.36-2.38,6.83-3.36,10.29
			c-0.98,3.9-2.38,7.69-5.2,10.84c-1.63,1.84-3.58,3.14-6.18,3.14c-2.17-0.11-3.9-0.98-5.2-2.71c-1.95-2.6-2.49-5.64-2.82-8.78
			c-0.54-5.96,0.22-11.81,1.08-17.66c0.22-0.76,0.33-1.52,0.43-2.38C351.39,169.58,351.28,169.58,351.28,169.47z M356.92,149.2
			c-0.76-0.11-1.3,0.33-1.73,0.65c-1.84,0.98-3.25,2.28-4.66,3.9c-3.04,3.69-5.42,7.8-7.48,12.25c-1.19,2.82-2.28,5.74-2.71,8.89
			c0,0.33-0.22,0.87,0.33,0.98c0.33,0.22,0.54-0.11,0.87-0.22c0.22-0.22,0.43-0.33,0.65-0.54c1.95-1.52,3.58-3.36,4.98-5.42
			c3.79-5.63,7.59-11.49,9.21-18.31C356.48,150.72,356.92,150.07,356.92,149.2z M365.26,147.14c1.63-0.43,2.71-1.08,3.79-1.84
			c6.61-4.23,12.68-9.1,17.66-15.17c3.9-4.77,7.37-9.75,9.86-15.5c0.43-1.19,0.87-2.38,0.98-3.58c0.11-1.41-0.22-1.84-1.73-1.63
			c-1.73,0.33-3.36,0.98-4.88,1.84c-4.66,2.6-8.56,6.18-11.92,10.4c-4.12,5.09-7.37,10.84-10.19,16.91
			C367.54,141.29,366.34,144,365.26,147.14z"/>
		<path class="st1" d="M382.38,182.8c0,1.3,0.22,2.93,0.76,4.55c0.22,0.33,0.33,0.76,0.54,1.08c0.76,1.08,1.19,1.19,2.28,0.43
			c3.14-2.38,5.74-5.2,7.8-8.56c2.38-4.12,4.88-8.24,7.15-12.35c1.73-2.93,3.9-5.42,6.29-7.69c2.06-1.95,4.55-3.04,7.15-4.01
			c0.54-0.11,1.19-0.22,1.73-0.11c0.33,0,0.76,0.11,0.76,0.54c0,0.33-0.22,0.43-0.54,0.54c0,0.11-0.11,0.11-0.22,0.22
			c-5.42,2.06-9.1,6.07-12.14,10.84c-2.6,4.12-4.88,8.45-7.15,12.68c-1.41,2.38-2.93,4.66-4.77,6.72c-0.87,0.98-1.84,1.84-2.93,2.6
			c-3.36,2.6-9.86,1.95-11.92-3.25c-0.98-2.49-1.3-5.09-0.98-7.8c0.65-8.78,3.47-17.01,8.02-24.49c2.82-4.66,6.18-8.78,10.73-11.81
			c2.38-1.52,4.77-2.38,7.59-2.28c1.73,0.11,3.36,0.76,4.55,2.06c1.3,1.19,1.52,2.71,0.87,4.34c-0.87,1.95-2.17,3.68-3.69,5.09
			c-1.52,1.41-3.14,2.6-4.88,3.68c-2.38,1.52-4.88,2.28-7.7,1.63c-0.76-0.22-1.19,0.22-1.52,0.76c-1.63,2.71-2.93,5.53-4.12,8.45
			c-1.63,4.23-2.93,8.45-3.47,12.9C382.49,180.52,382.38,181.39,382.38,182.8z M392.79,156.14c1.19,0,2.17-0.33,3.04-0.87
			c3.25-1.84,5.96-4.34,8.02-7.59c0.43-0.76,0.76-1.63,0.98-2.6c0.11-0.54-0.22-0.76-0.76-0.65c-0.87,0.22-1.73,0.65-2.49,1.19
			c-3.79,2.49-6.72,5.85-9.43,9.54c-0.11,0.22-0.33,0.43-0.22,0.76C392.14,156.25,392.57,156.14,392.79,156.14z"/>
		<path class="st1" d="M439.6,147.36c-1.73,1.63-2.93,3.14-4.12,4.55c-4.77,5.96-8.89,12.46-12.57,19.18
			c-2.06,4.01-4.23,8.02-6.07,12.14c-0.33,0.76-0.87,1.52-1.19,2.17c-0.65,1.3-1.73,1.63-3.04,1.52c-1.63-0.11-3.14-0.65-4.44-1.63
			c-1.41-0.87-1.52-2.38-1.52-3.9c0.11-1.95,0.54-3.9,1.08-5.74c2.17-9.32,5.1-18.31,8.89-27.09c1.3-2.93,2.82-5.63,4.55-8.34
			c0.54-0.76,1.08-1.52,1.73-2.17c1.3-1.19,2.71-1.3,4.23-0.54c1.41,0.76,2.06,2.06,1.73,3.79c-0.65,2.93-1.73,5.64-2.82,8.34
			c-1.3,3.58-2.6,7.15-3.9,10.62c-0.11,0.33-0.22,0.65-0.33,0.98c0.54,0,0.65-0.43,0.87-0.76c3.79-5.64,7.8-11.05,12.14-16.26
			c1.19-1.3,2.38-2.6,3.69-3.79c1.19-1.19,2.6-1.41,4.23-0.76c2.6,0.87,3.9,2.93,3.36,5.64c-0.22,1.84-0.54,3.58-0.87,5.31
			c-0.22,1.08-0.33,2.17-0.22,3.36c0,1.52,0.22,1.84,1.73,1.84c1.95,0,3.9-0.11,5.96-0.11c0.11,0,0.11-0.11,0.22-0.11
			c0.65,0,1.41,0,1.52,0.65c0.11,0.87-0.65,0.87-1.3,0.98c-1.63,0.33-3.36,0.65-5.09,1.19c-1.19,0.33-2.49,0.33-3.68-0.33
			c-2.82-1.41-4.66-3.58-4.77-6.83C439.6,150.07,439.6,148.99,439.6,147.36z"/>
	</g>
	<g>
		<path class="st1" d="M101.34,239.37l11.2-25.44h9.43v1.04h-1.13c-1.51,0-2.5,0.12-2.97,0.37c-0.47,0.25-0.78,0.71-0.94,1.39
			c-0.16,0.68-0.24,2.3-0.24,4.85v15.08c0,2.42,0.06,4,0.18,4.75s0.43,1.3,0.92,1.67c0.49,0.36,1.43,0.54,2.82,0.54h1.36v1.04h-14.7
			v-1.04h1.09c1.3,0,2.2-0.17,2.71-0.5c0.51-0.33,0.83-0.85,0.98-1.55c0.14-0.7,0.22-2.34,0.22-4.91V217.1l-12.18,27.58h-1.07
			L86.76,217.1v18.01c0,2.46,0.08,4.14,0.23,5.03s0.62,1.67,1.41,2.35c0.79,0.67,1.89,1.05,3.31,1.15v1.04h-11v-1.04
			c1.32-0.08,2.38-0.43,3.21-1.08s1.33-1.43,1.51-2.37c0.18-0.94,0.27-2.68,0.27-5.22V221.6c0-2.45-0.07-4.03-0.22-4.74
			c-0.14-0.71-0.45-1.2-0.91-1.47c-0.46-0.27-1.47-0.41-3.03-0.41h-0.84v-1.04h9.37L101.34,239.37z"/>
		<path class="st1" d="M130.35,225.36v12.95c0,1.98,0.03,3.23,0.09,3.74s0.28,0.91,0.66,1.18c0.38,0.27,1.05,0.41,2.02,0.41h0.48
			v1.04h-10v-1.04h0.77c1.07,0,1.77-0.15,2.1-0.46s0.51-0.68,0.57-1.11c0.05-0.43,0.08-1.68,0.08-3.75v-5.62
			c0-2.18-0.1-3.51-0.31-3.99s-0.48-0.79-0.82-0.91c-0.34-0.12-0.93-0.18-1.78-0.18h-0.61v-1.04c2.69-0.27,4.78-0.67,6.26-1.2
			H130.35z M125.97,215.88c0-0.65,0.23-1.21,0.69-1.68c0.46-0.47,1.02-0.7,1.67-0.7c0.65,0,1.2,0.23,1.66,0.7
			c0.45,0.47,0.68,1.03,0.68,1.68c0,0.67-0.23,1.23-0.68,1.7c-0.45,0.47-1.01,0.7-1.66,0.7c-0.65,0-1.21-0.23-1.67-0.7
			C126.2,217.11,125.97,216.55,125.97,215.88z"/>
		<path class="st1" d="M140.87,225.36h0.61c0.35,0.94,0.54,2.21,0.59,3.83c1.09-1.29,2.23-2.25,3.42-2.88
			c1.19-0.63,2.44-0.95,3.74-0.95c1.48,0,2.69,0.31,3.64,0.93c0.94,0.62,1.55,1.38,1.83,2.28c0.27,0.9,0.41,2.21,0.41,3.93v5.81
			c0,2.15,0.04,3.45,0.11,3.92c0.08,0.47,0.31,0.82,0.71,1.05s1.14,0.35,2.21,0.35v1.04h-9.5v-1.04h0.43c1.09,0,1.8-0.16,2.13-0.48
			s0.52-0.69,0.57-1.11c0.05-0.42,0.07-1.67,0.07-3.74v-5.99c0-1.47-0.07-2.51-0.22-3.14c-0.14-0.63-0.53-1.18-1.16-1.67
			c-0.63-0.48-1.42-0.73-2.39-0.73c-1.1,0-2.16,0.33-3.16,0.99c-1.01,0.66-1.95,1.64-2.85,2.96v7.57c0,2.15,0.04,3.45,0.12,3.92
			c0.08,0.47,0.33,0.82,0.73,1.05c0.4,0.23,1.15,0.35,2.23,0.35v1.04h-9.39v-1.04c1.04,0,1.77-0.11,2.18-0.32
			c0.41-0.21,0.66-0.53,0.76-0.96c0.1-0.43,0.15-1.78,0.15-4.05v-5.53c0-2.16-0.04-3.47-0.12-3.93c-0.08-0.46-0.33-0.81-0.73-1.04
			c-0.4-0.23-1.15-0.35-2.23-0.35v-1.04C137.43,226.22,139.13,225.87,140.87,225.36z"/>
		<path class="st1" d="M166.63,225.36v12.95c0,1.98,0.03,3.23,0.09,3.74s0.28,0.91,0.66,1.18c0.38,0.27,1.05,0.41,2.02,0.41h0.48
			v1.04h-10v-1.04h0.77c1.07,0,1.77-0.15,2.1-0.46c0.33-0.31,0.51-0.68,0.57-1.11s0.08-1.68,0.08-3.75v-5.62
			c0-2.18-0.1-3.51-0.31-3.99s-0.48-0.79-0.82-0.91c-0.34-0.12-0.93-0.18-1.78-0.18h-0.61v-1.04c2.69-0.27,4.78-0.67,6.26-1.2
			H166.63z M162.26,215.88c0-0.65,0.23-1.21,0.69-1.68s1.02-0.7,1.67-0.7s1.2,0.23,1.66,0.7c0.45,0.47,0.68,1.03,0.68,1.68
			c0,0.67-0.23,1.23-0.68,1.7c-0.45,0.47-1.01,0.7-1.66,0.7s-1.21-0.23-1.67-0.7S162.26,216.55,162.26,215.88z"/>
		<path class="st1" d="M172.64,245.27v-6.1h0.88c1.03,3.52,2.86,5.28,5.51,5.28c1.15,0,2.01-0.35,2.57-1.04
			c0.57-0.7,0.85-1.46,0.85-2.29c0-0.97-0.3-1.76-0.91-2.38c-0.62-0.62-1.82-1.37-3.61-2.25c-1.87-0.92-3.22-1.83-4.04-2.72
			c-0.82-0.88-1.22-1.96-1.22-3.24c0-1.22,0.44-2.39,1.32-3.5s2.11-1.67,3.7-1.67c1.62,0,2.96,0.66,4.01,1.97
			c0.23-0.23,0.52-0.78,0.88-1.66h0.84v5.74h-0.84c-0.3-1.38-0.89-2.56-1.76-3.55c-0.87-0.99-1.89-1.49-3.07-1.49
			c-0.91,0-1.64,0.28-2.2,0.84c-0.56,0.56-0.84,1.21-0.84,1.95c0,0.82,0.31,1.52,0.93,2.11c0.6,0.6,1.76,1.29,3.47,2.06
			c2.57,1.16,4.14,2.3,4.72,3.4c0.57,1.12,0.86,2.19,0.86,3.22c0,1.62-0.53,2.93-1.6,3.95c-1.07,1.01-2.41,1.52-4.03,1.52
			c-1.71,0-3.23-0.7-4.56-2.11c-0.41,0.45-0.74,1.1-1,1.95H172.64z"/>
		<path class="st1" d="M198.99,227.15h-5.6v11.23c0,1.72,0.08,2.88,0.23,3.48s0.47,1.08,0.96,1.44c0.49,0.36,1.02,0.54,1.58,0.54
			c1.09,0,2.03-0.62,2.83-1.86l0.73,0.43c-0.47,1-1.16,1.75-2.08,2.26c-0.91,0.51-1.84,0.76-2.78,0.76c-1.09,0-2.04-0.32-2.87-0.96
			c-0.82-0.64-1.34-1.39-1.54-2.26c-0.2-0.86-0.31-2.37-0.31-4.54v-10.52h-2.7v-1.04c1.24-0.03,2.35-0.55,3.33-1.56
			c0.98-1.01,1.61-2.43,1.88-4.26h0.73v5.83h5.6V227.15z"/>
		<path class="st1" d="M207.52,230.1c0.51-1.35,1.35-2.47,2.51-3.38c1.16-0.91,2.29-1.36,3.39-1.36c1,0,1.78,0.31,2.36,0.93
			c0.57,0.62,0.86,1.25,0.86,1.9c0,0.44-0.15,0.82-0.44,1.13s-0.65,0.48-1.08,0.48c-0.76,0-1.33-0.56-1.72-1.68
			c-0.27-0.76-0.68-1.13-1.22-1.13c-0.65,0-1.43,0.44-2.34,1.33s-1.49,1.8-1.75,2.76s-0.39,2.26-0.39,3.92v3.31
			c0,1.98,0.03,3.23,0.08,3.74s0.27,0.91,0.65,1.18c0.38,0.27,1.05,0.41,2.02,0.41h0.63v1.04h-9.86v-1.04h0.48
			c0.91,0,1.55-0.12,1.94-0.37c0.39-0.25,0.62-0.6,0.69-1.05c0.08-0.45,0.11-1.75,0.11-3.9v-5.24c0-2-0.03-3.25-0.08-3.75
			c-0.05-0.51-0.27-0.9-0.65-1.18s-1.05-0.42-2.02-0.42h-0.48v-1.02c1.42-0.17,3.28-0.61,5.58-1.34
			C207.23,226.55,207.48,228.13,207.52,230.1z"/>
		<path class="st1" d="M229.22,241.17l4.31-10.32c0.62-1.51,0.93-2.35,0.93-2.52c0-0.76-0.84-1.15-2.52-1.18v-1.04h6.53v1.04
			c-1.01,0.05-1.75,0.31-2.22,0.81c-0.47,0.49-1.05,1.58-1.75,3.25l-8.28,19.98c-0.79,1.9-1.48,3.2-2.09,3.89
			c-0.6,0.69-1.27,1.03-2,1.03c-0.98,0-1.47-0.45-1.47-1.34c0-1.03,0.79-1.9,2.36-2.61c0.92-0.41,1.54-0.76,1.85-1.04
			c0.31-0.29,0.62-0.81,0.92-1.56l1.77-4.42l-6.98-14.97c-0.62-1.32-1.13-2.15-1.54-2.49c-0.41-0.35-1.1-0.52-2.09-0.52v-1.04h8.53
			v1.04c-1.5,0.05-2.25,0.36-2.25,0.93c0,0.23,0.29,0.97,0.88,2.22L229.22,241.17z"/>
		<path class="st1" d="M279.43,233.14h0.98v10.77h-0.98c-0.27-1.22-0.76-2.31-1.47-3.24c-2.71,3.05-6.16,4.58-10.36,4.58
			c-4.44,0-8.08-1.41-10.9-4.22c-2.82-2.81-4.23-6.53-4.23-11.16c0-3.04,0.65-5.9,1.95-8.58c1.3-2.68,3.11-4.68,5.44-5.98
			c2.33-1.3,4.88-1.95,7.67-1.95c2.3,0,4.38,0.47,6.25,1.42s3.26,1.99,4.18,3.14c0.65-1.29,1.04-2.62,1.18-3.99h1l0.27,11.66h-0.98
			c-0.68-4.14-2.07-7.02-4.16-8.64s-4.46-2.43-7.09-2.43c-3.22,0-5.78,1.31-7.68,3.92c-1.9,2.62-2.85,6.36-2.85,11.23
			c0,4.61,1.04,8.15,3.11,10.6c2.07,2.46,4.65,3.69,7.73,3.69c1.65,0,3.33-0.4,5.06-1.2c1.72-0.8,3.09-2.16,4.09-4.07
			C278.66,236.77,279.25,234.92,279.43,233.14z"/>
		<path class="st1" d="M302.02,232.39h-12.95c-0.06,0.89-0.09,1.56-0.09,2c0,3.27,0.51,5.72,1.53,7.36s2.54,2.46,4.57,2.46
			c2.75,0,4.7-1.23,5.85-3.7h1.09c-0.48,1.54-1.44,2.75-2.88,3.62c-1.44,0.87-3,1.3-4.69,1.3c-1.57,0-3.06-0.4-4.46-1.19
			c-1.4-0.79-2.54-1.92-3.44-3.37c-0.89-1.45-1.34-3.21-1.34-5.28c0-2.93,0.86-5.37,2.59-7.31c1.72-1.94,3.88-2.91,6.46-2.91
			c2.43,0,4.32,0.74,5.65,2.22S301.94,230.67,302.02,232.39z M298.05,231.48c0.05-0.35,0.07-0.66,0.07-0.93
			c0-1.33-0.39-2.36-1.17-3.1c-0.78-0.73-1.73-1.1-2.87-1.1c-2.75,0-4.39,1.71-4.92,5.13H298.05z"/>
		<path class="st1" d="M310.18,225.36h0.61c0.35,0.94,0.54,2.21,0.59,3.83c1.09-1.29,2.23-2.25,3.42-2.88
			c1.19-0.63,2.44-0.95,3.74-0.95c1.48,0,2.69,0.31,3.64,0.93c0.94,0.62,1.55,1.38,1.83,2.28c0.27,0.9,0.41,2.21,0.41,3.93v5.81
			c0,2.15,0.04,3.45,0.11,3.92c0.08,0.47,0.31,0.82,0.71,1.05s1.14,0.35,2.21,0.35v1.04h-9.5v-1.04h0.43c1.09,0,1.8-0.16,2.13-0.48
			s0.52-0.69,0.57-1.11c0.05-0.42,0.07-1.67,0.07-3.74v-5.99c0-1.47-0.07-2.51-0.22-3.14c-0.14-0.63-0.53-1.18-1.16-1.67
			c-0.63-0.48-1.42-0.73-2.39-0.73c-1.1,0-2.16,0.33-3.16,0.99c-1.01,0.66-1.95,1.64-2.85,2.96v7.57c0,2.15,0.04,3.45,0.12,3.92
			c0.08,0.47,0.33,0.82,0.73,1.05c0.4,0.23,1.15,0.35,2.23,0.35v1.04h-9.39v-1.04c1.04,0,1.77-0.11,2.18-0.32
			c0.41-0.21,0.66-0.53,0.76-0.96s0.15-1.78,0.15-4.05v-5.53c0-2.16-0.04-3.47-0.12-3.93s-0.33-0.81-0.73-1.04
			c-0.4-0.23-1.15-0.35-2.23-0.35v-1.04C306.74,226.22,308.45,225.87,310.18,225.36z"/>
		<path class="st1" d="M341.21,227.15h-5.6v11.23c0,1.72,0.08,2.88,0.23,3.48s0.47,1.08,0.96,1.44c0.49,0.36,1.02,0.54,1.58,0.54
			c1.09,0,2.03-0.62,2.83-1.86l0.73,0.43c-0.47,1-1.16,1.75-2.08,2.26c-0.91,0.51-1.84,0.76-2.78,0.76c-1.09,0-2.04-0.32-2.87-0.96
			c-0.82-0.64-1.34-1.39-1.54-2.26c-0.2-0.86-0.31-2.37-0.31-4.54v-10.52h-2.7v-1.04c1.24-0.03,2.35-0.55,3.33-1.56
			c0.98-1.01,1.61-2.43,1.88-4.26h0.73v5.83h5.6V227.15z"/>
		<path class="st1" d="M360.55,232.39H347.6c-0.06,0.89-0.09,1.56-0.09,2c0,3.27,0.51,5.72,1.53,7.36s2.54,2.46,4.57,2.46
			c2.75,0,4.7-1.23,5.85-3.7h1.09c-0.48,1.54-1.44,2.75-2.88,3.62c-1.44,0.87-3,1.3-4.69,1.3c-1.57,0-3.06-0.4-4.46-1.19
			c-1.4-0.79-2.54-1.92-3.44-3.37c-0.89-1.45-1.34-3.21-1.34-5.28c0-2.93,0.86-5.37,2.59-7.31c1.72-1.94,3.88-2.91,6.46-2.91
			c2.43,0,4.32,0.74,5.65,2.22C359.77,229.06,360.48,230.67,360.55,232.39z M356.58,231.48c0.05-0.35,0.07-0.66,0.07-0.93
			c0-1.33-0.39-2.36-1.17-3.1c-0.78-0.73-1.73-1.1-2.87-1.1c-2.75,0-4.39,1.71-4.92,5.13H356.58z"/>
		<path class="st1" d="M370.05,230.1c0.51-1.35,1.35-2.47,2.51-3.38s2.29-1.36,3.39-1.36c1,0,1.78,0.31,2.36,0.93
			c0.57,0.62,0.86,1.25,0.86,1.9c0,0.44-0.15,0.82-0.44,1.13s-0.65,0.48-1.08,0.48c-0.76,0-1.33-0.56-1.72-1.68
			c-0.27-0.76-0.68-1.13-1.22-1.13c-0.65,0-1.43,0.44-2.34,1.33c-0.91,0.88-1.49,1.8-1.75,2.76s-0.39,2.26-0.39,3.92v3.31
			c0,1.98,0.03,3.23,0.08,3.74s0.27,0.91,0.65,1.18c0.38,0.27,1.05,0.41,2.02,0.41h0.63v1.04h-9.86v-1.04h0.48
			c0.91,0,1.55-0.12,1.94-0.37c0.39-0.25,0.62-0.6,0.69-1.05c0.08-0.45,0.11-1.75,0.11-3.9v-5.24c0-2-0.03-3.25-0.08-3.75
			c-0.05-0.51-0.27-0.9-0.65-1.18c-0.38-0.28-1.05-0.42-2.02-0.42h-0.48v-1.02c1.42-0.17,3.28-0.61,5.58-1.34
			C369.77,226.55,370.01,228.13,370.05,230.1z"/>
	</g>
</g>
<g id="Circle" class="st0">
	<path class="st2" d="M148.04-23.36c37.5-25.5,81.64-44.94,127.18-48.87c35.54-3.06,73.84,5.17,107.62,15.84
		c22.41,7.08,41.65,17.24,61.36,29.74c0,0,123.93,78.61,89.25,275.42c0,0-23,114.76-169.98,156.69c0,0-171.56,22.78-236.8-64.46
		c0,0,12.93,22.54,38.35,39.05c0,0,70.01,50.19,200.36,31.53c0,0,131.57-24.81,177-159.39c0,0,47.25-186.95-95.1-286.17
		C377.72-82.44,280.78-95.1,203.78-57.63C199.65-55.62,173.28-43.1,148.04-23.36z"/>
</g>
<g id="glow" class="st0">
	
		<radialGradient id="SVGID_1_" cx="60.8407" cy="188.4164" r="64.427" gradientTransform="matrix(1.7122 0 0 1 8.0208 0)" gradientUnits="userSpaceOnUse">
		<stop  offset="0" style="stop-color:#FEDDA6"/>
		<stop  offset="0.2621" style="stop-color:#FEDEA9;stop-opacity:0.7379"/>
		<stop  offset="0.4618" style="stop-color:#FEE2B3;stop-opacity:0.538"/>
		<stop  offset="0.641" style="stop-color:#FEE8C3;stop-opacity:0.3588"/>
		<stop  offset="0.808" style="stop-color:#FFF1DA;stop-opacity:0.1918"/>
		<stop  offset="0.9652" style="stop-color:#FFFCF7;stop-opacity:0.0345"/>
		<stop  offset="0.9998" style="stop-color:#FFFFFF;stop-opacity:0"/>
	</radialGradient>
	<path class="st3" d="M220.43,184.37c0,38.47-76.67,69.65-171.24,69.66c-41.26,0.01-45.22-34.82-45.22-73.29
		s18.21-52.48,73.64-56.81C171.9,116.57,220.43,145.9,220.43,184.37z"/>
</g>
<g id="Layer_8" class="st0">
	<defs>
		<filter id="Adobe_OpacityMaskFilter" filterUnits="userSpaceOnUse" x="27.92" y="-74.61" width="507.91" height="507.8">
			<feColorMatrix  type="matrix" values="1 0 0 0 0  0 1 0 0 0  0 0 1 0 0  0 0 0 1 0"/>
		</filter>
	</defs>
	
		<mask maskUnits="userSpaceOnUse" x="27.92" y="-74.61" width="507.91" height="507.8" id="SVGID_00000062192125673095477780000015656253774623480741_" style="display:inline;">
		<g style="filter:url(#Adobe_OpacityMaskFilter);">
			
				<linearGradient id="SVGID_00000173150618756886067080000007216512240890540972_" gradientUnits="userSpaceOnUse" x1="279.9477" y1="370.4726" x2="279.9477" y2="-27.9835">
				<stop  offset="0.3772" style="stop-color:#FFFFFF"/>
				<stop  offset="0.4376" style="stop-color:#F3F3F3"/>
				<stop  offset="0.5466" style="stop-color:#D4D3D4"/>
				<stop  offset="0.6918" style="stop-color:#A2A0A1"/>
				<stop  offset="0.8654" style="stop-color:#5D5A5B"/>
				<stop  offset="1" style="stop-color:#231F20"/>
			</linearGradient>
			<path style="fill:url(#SVGID_00000173150618756886067080000007216512240890540972_);" d="M540.29,188.42
				c0,141.39-116.56,249.37-260.35,249.37S19.6,323.17,19.6,181.78s116.72-249.19,260.35-256
				C456.08-82.57,540.29,47.03,540.29,188.42z"/>
		</g>
	</mask>
	<g style="display:inline;mask:url(#SVGID_00000062192125673095477780000015656253774623480741_);">
		<path class="st7" d="M316.4,1.78c0,0-14.54,12.75-12.17,19.9c0,0-14.49,10.99-11.07,41.35c0,0-14.32,25-10.25,34.82
			c0,0,1.95,7.64-0.57,11.75c0,0-5.06,6.44-3.79,12.19c0,0-1.23,5.45-5.22,7.83c0,0-6.05,6.1-4.35,13.06c0,0,1.23,15.33-4.79,30.9
			c0,0-21.5-4.21-33.52,4.79c0,0-32.04,15.49-46.14,5.66c0,0,1.39,27.35,14.65,45.7c0,0-2.57-4.9-32.07,4.16l10.78,15.54
			c0,0-20.15-1.97-22.96-0.99c0,0,35.06,27.93,61.22,67.03c0,0-48.24,33.32-46.43,45.7c0,0,2.35,5.03-1.74,9.59
			c0,0-10.16,5.21-6.09,30.45c0,0-9.99,20.97,51.96,0c0,0,2.34,26.74,21.88,26.55c0,0,30.79,13.09,57.42-3.48
			c0,0,53.57-6.77,58.52-19.15c0,0,14.83,8.41,10.45-5.22l21.33,1.31c0,0-9.79-18.67,0-40.92l29.16,3.92v25.25
			c0,0,55.18-28.19,84.43-71.39c0,0-8.62-20.68-16.14-30.05c0,0-0.77,3.59-11.07-26.55c0,0-13.52,5.65-33.23-2.98
			c0,0-21.72-16.97-90.7-7.55c0,0,43.39-35.06,44.69-40.62c0,0,1.51,2.6,7.43,1.65c0,0,19.29-1.04,19.75,0.12
			c0,0,21.56,3.48,29.99,10.69c0,0,15.34,9.58,29.19,7.73c0,0,5.03-2.61,5.6-0.02l5.36-9.92l6.09,3.48c0,0,7.48,6.77,10.45-3.48
			c0,0,17.56-51.52,2.18-79.66c0,0-16.96-73.49-13.49-72.69c0,0-15.87-84.64-84.01-101.42c0,0-30.26-5.98-42.66,15.67l-1.09,3.13
			c0,0-2.98,2.63-5.73,6.96c0,0-7.22,10.45-7.36,7.95c0,0,0.59,4.69-21.65,8.47c0,0-9.01,3.28-11.94-3.95L316.4,1.78z"/>
		<path class="st8" d="M345.91,250.97c0,0,42.49-34.9,44.69-40.62c0,0-1.42,2.51,20.78,1.65c0,0,15.65-2.37,36.4,10.82
			c0,0,10.3,8.76,29.19,7.73c0,0,1.74-2.57,6.17-0.8l4.79-9.14l6.09,3.48c0,0,7.33,7.38,10.45-3.48c0,0,15.04-38.92,4.34-74.88
			l20.53,31.42c0,0,8.84,11.78,5.49,25.07c0,0-2.1,28.22-6.87,32.96c0,0-6.16,15.85-19.92,7.38l-5.99-1.95l-23.89,10.37
			c0,0-6.7,21.45-41.55,7.55c0,0-15.59-9.42-44.26-9.64"/>
		<path class="st8" d="M497.99,318.9c0,0,29.14-38.21,35.45-71.37l-8.92-16.58c0,0-4.08,18.72-16.49,11.6l-5.99-1.95l-23.89,10.37
			c0,0-3.25,7.33-8.32,9.34c0,0,8.22,27.49,11.07,27.74C480.91,288.05,495.82,310.83,497.99,318.9z"/>
		<path class="st7" d="M383.45,401.24c0,0-8.19,2.4-19.98,3.16c-11.79,0.76,0-12.05,0-12.05"/>
		<path class="st9" d="M383.45,401.24c0,0,24.15-6.84,29.16-11.75v-25.25l-29.16-3.92C383.45,360.33,374.15,378,383.45,401.24z"/>
		<path class="st9" d="M175.82,409.97c0,0,3.68,13.46,16.11,10.42c0,0,9.99-2.14,13.93,6.09c0,0,15.6,7.89,25.58,0.87
			c0,0-14.43-1.16-17.58-26.12C213.85,401.24,184.6,409.84,175.82,409.97z"/>
		<path class="st9" d="M167.32,234.21l10.57,15.24c0,0-29.06-2.84-47.04-1.1c0,0-20.27,2.37-26.96,4.9c0,0-15.06,7.35-28.24-3.8
			c0,0-6.63-0.17-8.8-3.59l-2.2-0.82l-6.78-3.42c0,0-5.12-2.39-11.34-10.83c0,0-14.8-10.99-9.73-17.16c0,0-8.31-5.27-6.69-8.3
			c0,0-4.74-1.34,2.48-3.3c0,0,0.82-4.76,6.35-5.27l6.73-0.53c0,0,18.43-1.82,19.17,0c0,0-2.68-5.29,7.81-7.83l10.5-2.55
			c0,0-10.82-1.33-4.86-7.35c0,0,20.84-2.82,29.53-6.88c0,0,24.56-6.89,33.14,5.8c0,0,13.93,18.96,44.36,13.49
			c0,0,2.83,22.02,13.33,38.4C198.65,229.3,188.46,225.85,167.32,234.21z"/>
		<path class="st9" d="M352.29,0.55c0,0-0.58,4.77-21.65,8.47c0,0-8.25,3.56-11.94-3.95c0,0-0.85-5.25-22.03-18.04
			c0,0,5.77-7.84,5.12-9.47c0,0,6.95,0.45,7.95-4.29c0,0,12.55,4.25,5.93-7.69c0,0,6.8-3.81-1.01-8.07l0.38-2.4
			c0,0,6.19-3.88,6.51-5.46c0,0,3.21,6.5,2.93,10.75c0,0,2.1,8.02,7.58,6.59c0,0,6.25-1.05,7.16,4.66c0,0,1.22,5.57,5.02,6.09
			c0,0,7.67,2.05,5.73,13.08C349.98-9.2,349.31-1.69,352.29,0.55z"/>
		<path class="st9" d="M250.82-52.84c0,0-4.75,7.78,4.58,6.87c0,0,9.49-0.58,9.35,1.84c0,0-20.51,6.25-9.88,11.98v1.98
			c0,0,4.02,2,2.14,9.62c0,0,1.74,4.51,4.79,3.28c0,0-0.22-2.76,2.65-2.77c0,0,5.08-2.43,1.51-4.2c0,0-5.44-1.14,1.26-4.5
			c0,0,3.51-5.8,2.9,1.64c0,0,2.04,6.17,4.54,0l0.76-6.05c0,0-2.24-1.93-2.77-4.33c0,0-3.04-2.95-0.88-5.01c0,0,1.43-2.66-1.64-3.78
			c0,0-3.75,0.1-5.3-4.92C264.84-51.2,261.65-53.62,250.82-52.84z"/>
		<path class="st9" d="M241.5-66.69c0,0,36.31-11.62,66.96-6.71l-5.87,2.18c0,0-6.78,9.47-3.66,11.33c0,0,1.3,5.44-1.61,6.89
			c0,0-4.47,4.66-3.05,7.98c0,0,0.68,4.33-2.51,0c0,0-0.47-4.07-4.36-4.98c0,0-2.43-5.48-4.78,0.5c0,0-4.97-2.24-5.73,1.61
			c0,0-3.61,0.61-4.26-3.02c0,0,0.65-2.07-1.3-1.94c0,0,0.51-4.34-19.24-3.4c0,0-1.81-8.09-2.49-8.3L241.5-66.69z"/>
		<path class="st10" d="M252.1-56.25c0,0-0.6,1.99-2.02,3.15c0,0,14.47-0.87,14.76,1.89c0,0,2.28,5.78,5.3,4.92
			c0,0,4.02,1.05,1.64,3.78c0,0-2.21,2.48,0.88,5.01c0,0,1.55,3.92,2.77,4.33c0,0,0.11,4.36-0.76,6.05c0,0-2.12,6.17-4.54,0
			c0,0,1.67-8.51-2.9-1.64c0,0-6.37,3.03-1.26,4.5c0,0,3.61,1.54-1.51,4.2c0,0-2.85,0.51-2.65,2.77c0,0-3.44,1.03-4.79-3.28
			c0,0,1.86-8.17-2.14-8.83l-2.65,4.67c0,0-1.64,1.5,0.25,3.53c0,0,1.86,3.5,0.58,4.12c0,0-1.86,1.85,0.18,4.09
			c0,0-0.62,4.49,2.52,4.4c0,0,1.19,3.1,3.28,3.66c0,0,5.05,0.53,4.92,3.25c0,0,2.65,3.63,6.05,0c0,0,5.23,1.13,6.33-0.6
			c0,0,4.4,6.92,7.67-2.4c0,0,4.79,3.48,6.56-4.67c0,0,7.6-1.37,11.22-13.12c0,0,6.56,0.45,7.95-4.29c0,0,12.68,3.73,5.93-7.69
			c0,0,7.32-3.81-1.01-8.07l0.38-2.4c0,0,5.93-3.1,6.51-5.46c0,0-1.36-3-3.43-2.49c0,0-9.28-2-9.69-9.55c0,0-2.82-6.85-5.83-8.82
			c0,0-7.55,10.14-2.95,11.99c0,0,0.46,6.13-2.26,6.13c0,0-4.07,3.64-3.27,7.2c0,0,0.8,6.54-2.31,0.97c0,0-0.95-4.39-4.17-4.91
			c0,0-3.09-5.97-4.9,0.38c0,0-5.44-2.46-5.7,1.55c0,0-4.09,0.85-4.44-3.01c0,0,0.56-2.17-1.26-1.91
			C271.34-52.84,267.97-58.22,252.1-56.25z"/>
		<path class="st10" d="M299.65-74.22c0,0,80.77,4.75,144.37,46.03c0,0-0.86,6.4,1.44,6.81c0,0,12.42,10.37,10.41,15.95
			c0,0-22.62-23.44-46.33-27.72c0,0-30.97-5.64-43.05,15.66l-1.09,3.13c0,0-1.05-0.98-5.73,6.96c0,0-9.1,18.54-9.67-1.79
			c0,0,3.18-6.46-4.85-12.81c0,0-5.49-0.95-5.86-6.17c0,0,0.41-5.55-5.94-5.01c-0.4,0.03-0.82,0.09-1.27,0.17
			c-7.67,1.42,0.87-0.14,0.87-0.14s-5.78,1.87-8.46-6.45c0,0-0.6-12.98-6.37-13.24s-10.25-7.05-9.69-9.55l-3.72-5.74"/>
		<path class="st11" d="M344.92,250.73c0,0,61.64-8.51,91.69,7.8c0,0,20.2,9.03,33.23,1.92c3.44-1.88,6.38-4.88,8.32-9.47
			c0,0,4.97-14.49,4.97-17.86c0,0,0.7-5.84-6.17-2.58c0,0-13.74,2.23-29.19-7.73c0,0-17.68-11.85-36.4-10.82
			c0,0-22.77,0.73-20.78-1.65"/>
		<path class="st11" d="M469.84,260.44c0,0,7.12,24.52,11.07,27.61c0,0,16.31,25.75,16.14,30.05"/>
		<path class="st11" d="M478.16,250.97l18.89-7.73c0,0,9.1-2.75,8.58-9.79c0,0,5.15-7.73,12.19-8.93"/>
		<path class="st11" d="M508.79,145.72l20.53,31.42c0,0,8.07,9.44,5.49,25.07c0,0-1.2,26.1-6.87,32.96c0,0-0.2,0.64-0.66,1.59
			c-1.73,3.6-7.16,11.64-19.26,5.8l-5.99-1.96"/>
		<path class="st11" d="M533.44,247.54c0,0-4.75-9.88-6.15-10.78"/>
		<path class="st12" d="M185.32,190.9c0,0-28.49,5.93-44.36-13.49c0,0-6.22-12.22-33.14-5.8c0,0-17.35,5.89-29.53,6.88
			c0,0-6.48,4.86,4.86,7.35c0,0,6.09-0.34,26.91-7.68c0,0,9.1-4.28,14.75-4.42l5.95,1.59"/>
		<path class="st12" d="M134.91,192.22c0,0-18.72,0.96-23.07,7.06c0,0-7.4-2.61-20.89,6.53c0,0-14.36,1.31-22.2-3.92
			c0,0-11.42-9.59,3.92-13.49c0,0,19.48-4.75,25.17-6.51"/>
		<path class="st12" d="M64.66,216.25c0,0,7.57-10.88,23.24-5.66c0,0-1.74-5.22,3.05-4.79"/>
		<path class="st12" d="M68.71,212.49c-10.05-5.94-19.55-1.48-19.55-1.48c-3.05-7.85-16.11-5.24-16.11-5.24
			c4.35,2.15,5.22,10.47,5.22,10.47s24.98,23.94,38.17,16.54c0,0,17.98-2.61,20.59-0.44"/>
		<path class="st12" d="M42.28,219.78"/>
		<path class="st12" d="M104.44,245.41"/>
		<path class="st12" d="M66.86,245.86c0,0,1.89,5.65,19.74,2.6c0,0,12.62-0.2,17.85,0.99"/>
		<path class="st12" d="M177.89,249.45c0,0-22.11-2.56-44.97-1.1c-10.16,0.65-20.46,2.09-29.03,4.9c0,0-15.15,7.26-28.47-3.99"/>
		<path class="st12" d="M199.17,229.74c0,0-5.77-9.37-68.32,18.6"/>
		<path class="st12" d="M33.48,202.02c0,0-3.04-5.8,12.19-5.8c0,0,18.44-1.8,19.17,0"/>
		<path class="st12" d="M175.82,410.53c0,0,2.18,12.04,16.11,9.87c0,0,10.45-1.74,13.93,6.09c0,0,15.9,7.83,25.58,0.87"/>
		<line class="st12" x1="383.45" y1="360.33" x2="412.61" y2="364.24"/>
		<path class="st12" d="M77.8,209.26c-0.95-2.64-9.93-0.41-9.93-0.41c-8.27-5.66-16.98-3.07-16.98-3.07
			c-3.67-3.82-11.32-3.89-11.32-3.89c-3.37-0.77-5.17-0.51-6.1,0.14c-1.71,1.2-0.43,3.75-0.43,3.75c-1.27-0.13-2.23-0.28-2.94-0.45
			c-4.95-1.2,2.48-3.3,2.48-3.3l0.7-0.61"/>
		<path class="st12" d="M30.12,205.32c0,0-2.37,3.15,7.83,8.98"/>
		<path class="st12" d="M36.81,213.63c0,0-6.23,5.16,9.73,17.16"/>
		<path class="st12" d="M67.36,200.51c0,0,13.63,0.8,15.47-5.08c0,0,2.24-5.89-1.58-6.55c0,0-4.65-1.67-13.38,1.34"/>
		<path class="st12" d="M296.67-12.97c0,0,19.7,11.98,22.03,18.04c0,0,1.93,6.58,11.94,3.95c0,0,19.55-2.94,21.65-8.47"/>
		<path class="st12" d="M241.5-66.69c0,0,3.94,1.27,8.2,1.86c5.34,0.73,11.17,0.39,10.36-4.88"/>
		<path class="st12" d="M254.87-29.38v-2.77c-4.69-2.71-3.04-5.44,0.15-7.61c3.78-2.58,9.73-4.37,9.73-4.37
			c0-2.24-9.35-1.84-9.35-1.84c-0.79,0.08-1.48,0.1-2.1,0.06c-6.56-0.36-2.48-6.93-2.48-6.93"/>
		<path class="st12" d="M253.3-45.91c0,0,2.14,3.01,1.73,6.15"/>
		<path class="st12" d="M43.7,224.45c0,0,2.57,9.7,14.17,17.17l6.78,3.42c0,0,4.01,1.55,9.4,0.37c0,0,24.42-1.52,30.37,0"/>
		<path class="st12" d="M42.28,219.78c0,0,2.35,9.3,3.51,4.67l-0.51-2.24"/>
		<path class="st12" d="M252.1-56.25c0,0-1.55-8.45-3.24-8.72"/>
		<path class="st13" d="M302.59-71.22c0,0-7.07,9.18-3.66,11.33c0,0,1.79,4.64-1.61,6.89c0,0-4.12,3.86-3.05,7.98
			c0,0,0.54,5.37-2.51,0c0,0-0.9-3.94-4.12-4.84c0,0-3.22-5.73-5.02,0.36c0,0-5.02-2.15-5.73,1.61c0,0-3.94,0.54-4.3-3.05
			c0,0,0.54-1.99-1.25-2.07c0,0-0.96-1.65-4.1-2.37c0,0-7.32-2.27-15.14-0.88c0,0-1.01,3.28-2.02,3.15c0,0,14-0.88,14.76,1.89
			c0,0,1.89,5.68,5.3,4.92c0,0,3.53,0.38,1.64,3.78c0,0-2.4,2.32,0.88,5.01c0,0,1.14,3.19,2.77,4.33c0,0,0,5.04-0.76,6.05
			c0,0-2.14,6.43-4.54,0c0,0,1.39-7.69-2.9-1.64c0,0-6.18,3.45-1.26,4.5c0,0,3.53,1.05-1.51,4.2c0,0-2.4,0.25-2.65,2.77
			c0,0-3.91,1.14-4.79-3.28c0,0,1.39-8.83-2.14-8.83c0,0-2.02,3.78-2.65,4.67c0,0-1.51,1.77,0.25,3.53c0,0,1.77,3.41,0.13,4.67
			c0,0-1.14,1.79,0.63,3.55c0,0-0.38,4.15,2.52,4.4c0,0,1.14,3.66,3.28,3.66c0,0,4.67,0.69,4.92,3.25c0,0,3.03,3.75,6.05,0
			c0,0,5.22,1.04,6.33-0.6c0,0,4.39,6.94,7.67-2.4c0,0,4.54,3.41,6.56-4.67c0,0,8.07-2.4,11.22-13.12c0,0,6.31,0.5,7.95-4.29
			c0,0,12.61,3.53,5.93-7.69c0,0,7.44-3.91-1.01-8.07l0.38-2.4c0,0,6.34-3.61,6.51-5.46"/>
		<path class="st14" d="M427.85,17.33l16.11,14.8c9.58,3.92,7.83,15.23,7.83,15.23l2.18,17.85c13.93,19.15,3.92,46.57,3.92,46.57
			c-12.19,13.06-14.8,17.41-14.8,17.41c-9.14,60.07-50.49,78.78-50.49,78.78c-28.29,34.39-80.09,63.99-80.09,63.99
			c-5.22,13.93-77.48,37.43-77.48,37.43c5.66-19.59-23.5-62.68-23.5-62.68c-26.99-30.9-26.99-62.68-26.99-62.68
			c13.49,9.58,46.14-5.66,46.14-5.66c13.49-9.58,33.52-4.79,33.52-4.79c5.66-15.67,4.79-30.9,4.79-30.9
			c-1.74-6.96,4.35-13.06,4.35-13.06c3.92-2.18,5.22-7.83,5.22-7.83c-0.87-6.96,3.79-12.19,3.79-12.19
			c2.48-3.48,0.57-11.75,0.57-11.75c-3.48-10.45,10.25-34.82,10.25-34.82c-3.24-31.78,11.07-41.35,11.07-41.35
			c-2.18-7.83,12.17-19.9,12.17-19.9"/>
		<path class="st14" d="M342.53,165.24c0,0-30.47-38.23-55.72,2.69c0,0-5.32,6.56-22.63,5.66"/>
		<path class="st14" d="M487.91,220.6l6.09,3.48c0,0,7.4,6.96,10.45-3.48c0,0,17.41-50.93,2.18-79.66c0,0-16.11-69.21-13.49-72.69
			c0,0-16.54-84.44-84.01-101.42c0,0-30.47-5.66-42.66,15.67c0,0-4.35,15.23-16.54,25.68c0,0-16.98,18.28-11.75,35.26
			c0,0-7.66,11.75-1,23.5c0,0-7.27,17.85,5.35,23.94c0,0,5.22,1.31-3.48,8.27c0,0-8.71,2.61,0.87,18.72c0,0-1.78,10.01-5.46,7.83
			c0,0,5.02,10.88-2.38,10.01c0,0-7.64,0.8-4.35,10.01c0,0,2.99,6.74-4.79,5.05"/>
		<path class="st14" d="M309.02,21.25c0,0-6.09,14.36-2.18,22.2c0,0,6.53,10.45,2.18,23.94c0,0-11.75,20.02,5.22,46.57
			c0,0,7.96,34.96,2.61,35.06"/>
		<path class="st14" d="M483.13,229.74c0,0,31.34-46.72,4.79-133.49"/>
		<path class="st14" d="M167.99,234.97c0,0,68.01,101.88,67.74,69.66"/>
		<path class="st14" d="M154.93,248.46c0,0,38.44,32.65,61.22,67.03c0,0,23.22,23.07,14.95-4.57"/>
		<path class="st14" d="M322.94,265.6c0,0-31.7,36.16-90.06,58.92"/>
		<path class="st14" d="M376.92,258.04c0,0-39.61-10.45-44.83,23.94c0,0-7.83,26.6-23.94,13.08c0,0-5.22-9.16-20.89,12.16
			c0,0-15.18,29.16-29.16,20.89c0,0-8.27,1.74-12.19,10.45c0,0-13.49,19.15-19.59,25.25c0,0-14.36,9.14-17.85,27.86h4.79
			c0,0-1.19,36.13,22.47,36.13c0,0,30.24,13.06,57.42-3.48c0,0,54.6-6.53,58.52-19.15c0,0,14.36,8.27,10.45-5.22"/>
		<path class="st14" d="M356.46,357.28c0,0,24.38-2.61,26.99,3.05c0,0-9.58,16.98,0,40.92"/>
		<path class="st14" d="M441.78,370.77c-13.06,0.87-58.33-30.9-58.33-30.9"/>
		<polyline class="st14" points="412.61,389.49 412.61,364.24 422.95,364.24 		"/>
		<path class="st14" d="M213.85,401.24c0,0-58.49,20.89-51.96,0c0,0-4.35-23.91,6.09-30.45c0,0,3.48-4.37,1.74-9.59
			c0,0-3.78-11.32,46.43-45.7"/>
		<path class="st13" d="M299.65-74.22c0,0,7.88,7.34,8.78,11.82c0,0-0.36,6.07,8.96,9.39c0,0,5.47-1.28,6.94,12.66
			c0,0,1.3,8.03,7.75,7.32c0,0,6.45-1.61,7.16,4.66c0,0,0.9,5.19,5.02,6.09c0,0,7.7,2.51,5.73,13.08c0,0-0.54,19.88,9.67,1.79
			c0,0,4.11-7.11,5.73-6.96"/>
	</g>
</g>
<g id="Layer_9" class="st0">
</g>
<g id="Layer_10" class="st0">
</g>
<g id="Layer_11" class="st0">
</g>
<g id="Layer_7" class="st0">
</g>
<g id="Layer_6" class="st0">
</g>
<g id="Layer_5" class="st0">
</g>
<g id="skin_outline" class="st0">
</g>
<g id="robe_outline" class="st0">
</g>
<g id="Layer_13" class="st0">
</g>
<g id="Layer_4" class="st0">
</g>
</svg>
