<?xml version="1.0" encoding="utf-8"?>
<!-- Generator: Adobe Illustrator 28.3.0, SVG Export Plug-In . SVG Version: 6.00 Build 0)  -->
<svg version="1.1" xmlns="http://www.w3.org/2000/svg" xmlns:xlink="http://www.w3.org/1999/xlink" x="0px" y="0px"
	 viewBox="0 0 612 559" style="enable-background:new 0 0 612 559;" xml:space="preserve">
<style type="text/css">
	.st0{display:none;}
	.st1{display:inline;}
	.st2{fill:#231F20;}
	.st3{display:inline;stroke:#000000;stroke-miterlimit:10;}
	.st4{opacity:0.55;fill:url(#SVGID_1_);}
	.st5{filter:url(#Adobe_OpacityMaskFilter);}
	.st6{fill:url(#SVGID_00000025420957989690334860000002828043375238608300_);}
	.st7{mask:url(#SVGID_00000177454361520764106570000003322747978336029606_);}
	.st8{fill:#F9F6EF;}
	.st9{fill:#69181C;}
	.st10{fill:#C19D86;}
	.st11{fill:#4A3B35;}
	.st12{fill:none;stroke:#4D0E0F;stroke-miterlimit:10;}
	.st13{fill:none;stroke:#91624F;stroke-miterlimit:10;}
	.st14{fill:none;stroke:#3C2F2A;stroke-miterlimit:10;}
	.st15{fill:none;stroke:#C6BFB1;stroke-miterlimit:10;}
</style>
<g id="Layer_14">
</g>
<g id="text" class="st0">
	<g class="st1">
		<path class="st2" d="M89.89,175.06c3.58-0.06,6.44-0.34,9.35-0.73c4.76-0.67,9.46-1.57,14.06-2.86c4.42-1.18,8.79-2.69,12.88-4.82
			c1.57-0.84,3.08-1.79,4.37-3.14c0.5-0.56,0.9-1.18,1.18-1.85c0.39-0.78,0.28-1.57-0.28-2.3c-0.9-1.01-1.96-1.79-3.14-2.41
			c-2.13-1.23-4.48-1.96-6.89-2.52c-3.58-0.84-7.22-1.23-10.86-1.68c-2.97-0.39-5.88-0.67-8.74-1.57c-0.9-0.22-1.74-0.56-2.52-1.01
			c-2.97-1.51-4.65-3.98-4.98-7.28c-0.11-1.23,0.22-2.35,0.73-3.47c0.78-1.62,1.85-3.14,3.02-4.48c3.08-3.7,6.83-6.61,10.92-9.02
			c3.81-2.24,7.78-3.98,12.15-4.87c2.8-0.56,5.66-0.73,8.46-0.11c1.29,0.28,2.52,0.73,3.3,1.96c0.34,0.5,0.56,1.06,0.67,1.68
			c0.06,0.22,0.11,0.45,0,0.67c-0.11,0.22-0.34,0.34-0.5,0.17c-0.78-0.95-1.9-0.78-2.91-0.78c-3.25-0.11-6.44,0.28-9.52,1.12
			c-7.39,1.96-13.72,5.71-19.04,11.14c-1.46,1.51-2.8,3.14-3.7,5.1c-0.39,0.78-0.67,1.62-0.78,2.52c-0.11,0.95,0.17,1.68,1.01,2.18
			c1.23,0.73,2.52,1.12,3.86,1.51c2.46,0.73,4.98,1.06,7.5,1.4c4.31,0.56,8.62,1.06,12.82,2.18c2.07,0.5,4.03,1.18,5.88,2.18
			c2.18,1.23,4.03,2.86,5.15,5.15c1.34,2.86,0.9,5.66-1.29,7.95c-1.34,1.4-2.91,2.41-4.59,3.3c-3.58,1.85-7.39,3.02-11.31,4.03
			c-4.37,1.12-8.85,1.85-13.33,2.41c-3.42,0.45-6.83,0.78-10.3,0.78c-1.85-0.06-3.64-0.17-5.43-0.67c-2.07-0.56-3.86-1.51-4.98-3.42
			c-0.95-1.68-1.06-3.36-0.11-5.04c0.62-1.18,1.51-2.13,2.52-2.97c2.63-2.24,5.71-3.75,8.9-4.98c4.31-1.57,8.74-2.52,13.27-3.02
			c3.75-0.39,7.45-0.73,11.2-0.9c1.9-0.11,3.81,0,5.66,0.28c0.34,0.06,0.67,0.17,0.9,0.45c0.11,0.11,0.17,0.28,0.11,0.45
			s-0.22,0.17-0.34,0.17c-0.17,0-0.28,0-0.45,0c-2.58-0.34-5.15-0.11-7.78,0.11c-2.74,0.28-5.49,0.62-8.23,1.12
			c-5.77,1.01-11.42,2.52-16.74,5.21c-2.13,1.06-4.14,2.3-5.77,4.03c-0.56,0.62-1.06,1.23-1.46,1.9c-0.28,0.62-0.5,1.18-0.5,1.85
			c0,0.9,0.39,1.46,1.12,1.85c0.56,0.34,1.18,0.5,1.85,0.62C87.65,174.95,89.1,175.12,89.89,175.06z"/>
		<path class="st2" d="M153.06,151.04c-1.12,1.34-1.9,2.8-2.74,4.31c-1.01,1.74-1.9,3.53-3.02,5.15c-0.67,0.95-1.34,1.85-2.13,2.69
			c-0.95,0.9-1.96,1.12-3.19,0.67c-1.46-0.56-2.41-1.51-2.69-3.14c-0.28-1.9-0.06-3.81,0.28-5.71c0.73-4.03,2.18-7.78,4.09-11.37
			c0.11-0.17,0.22-0.39,0.34-0.56c0.22-0.34,0.5-0.45,0.9-0.39c1.12,0.17,2.02,0.78,2.63,1.79c0.28,0.45,0.22,0.95,0.17,1.46
			c-0.22,0.9-0.5,1.68-0.78,2.52c-1.06,2.91-2.13,5.82-2.8,8.9c-0.28,1.12-0.45,2.24-0.56,3.42c-0.06,0.17,0,0.34,0,0.5
			c0.39,0.06,0.62-0.22,0.84-0.45c1.23-1.06,2.24-2.3,3.14-3.64c0.95-1.46,1.85-2.91,2.8-4.37c1.29-2.07,2.69-4.09,4.14-6.1
			c0.78-1.12,1.51-2.24,2.3-3.36c0.56-0.84,0.73-0.9,1.34-0.67c0.67,0.28,1.18,0.95,1.06,1.62c-0.06,0.73-0.28,1.4-0.5,2.07
			c-0.62,1.74-1.12,3.47-1.51,5.26c-0.45,2.41-0.56,4.82-0.45,7.17c0.06,0.95,0.28,1.79,0.62,2.63c0.39,0.95,0.56,0.95,1.18,0.22
			c0.84-1.06,1.57-2.13,2.18-3.3c1.4-2.46,2.69-4.93,4.03-7.39c1.57-2.69,3.14-5.38,5.1-7.78c1.57-2.02,3.47-3.58,5.66-4.93
			c0.34-0.22,0.67-0.39,1.06-0.5c0.22-0.06,0.5-0.11,0.73,0c0.39,0.17,0.45,0.5,0.11,0.73c-4.14,2.91-6.72,7.11-9.07,11.42
			c-1.68,3.08-3.14,6.22-4.65,9.35c-0.56,1.29-1.23,2.52-2.02,3.7c-1.12,1.74-2.35,2.46-4.87,1.46c-2.74-1.18-4.03-3.36-4.37-6.22
			c-0.22-2.13,0-4.14,0.45-6.22C152.89,151.66,152.94,151.32,153.06,151.04z"/>
		<path class="st2" d="M171.31,167.95c0,0.67,0.11,1.51,0.39,2.35c0.11,0.17,0.17,0.39,0.28,0.56c0.39,0.56,0.62,0.62,1.18,0.22
			c1.62-1.23,2.97-2.69,4.03-4.42c1.23-2.13,2.52-4.26,3.7-6.38c0.9-1.51,2.02-2.8,3.25-3.98c1.06-1.01,2.35-1.57,3.7-2.07
			c0.28-0.06,0.62-0.11,0.9-0.06c0.17,0,0.39,0.06,0.39,0.28c0,0.17-0.11,0.22-0.28,0.28c0,0.06-0.06,0.06-0.11,0.11
			c-2.8,1.06-4.7,3.14-6.27,5.6c-1.34,2.13-2.52,4.37-3.7,6.55c-0.73,1.23-1.51,2.41-2.46,3.47c-0.45,0.5-0.95,0.95-1.51,1.34
			c-1.74,1.34-5.1,1.01-6.16-1.68c-0.5-1.29-0.67-2.63-0.5-4.03c0.34-4.54,1.79-8.79,4.14-12.66c1.46-2.41,3.19-4.54,5.54-6.1
			c1.23-0.78,2.46-1.23,3.92-1.18c0.9,0.06,1.74,0.39,2.35,1.06c0.67,0.62,0.78,1.4,0.45,2.24c-0.45,1.01-1.12,1.9-1.9,2.63
			c-0.78,0.73-1.62,1.34-2.52,1.9c-1.23,0.78-2.52,1.18-3.98,0.84c-0.39-0.11-0.62,0.11-0.78,0.39c-0.84,1.4-1.51,2.86-2.13,4.37
			c-0.84,2.18-1.51,4.37-1.79,6.66C171.37,166.78,171.31,167.22,171.31,167.95z M176.69,154.18c0.62,0,1.12-0.17,1.57-0.45
			c1.68-0.95,3.08-2.24,4.14-3.92c0.22-0.39,0.39-0.84,0.5-1.34c0.06-0.28-0.11-0.39-0.39-0.34c-0.45,0.11-0.9,0.34-1.29,0.62
			c-1.96,1.29-3.47,3.02-4.87,4.93c-0.06,0.11-0.17,0.22-0.11,0.39C176.35,154.23,176.58,154.18,176.69,154.18z"/>
		<path class="st2" d="M212.58,140.34c-0.5-0.11-0.84,0-1.06,0.39c-0.22,0.34-0.39,0.67-0.56,1.01c-2.3,4.54-4.54,9.07-6.83,13.61
			c-2.02,4.03-4.26,7.95-7.06,11.54c-1.18,1.46-2.41,2.86-3.92,3.98c-0.28,0.22-0.62,0.45-1.01,0.62c-2.8,1.57-6.38,0.67-8.06-2.13
			c-0.9-1.46-1.01-3.08-0.84-4.76c0.45-3.47,1.85-6.55,3.75-9.41c1.51-2.35,3.3-4.37,5.54-6.05c1.46-1.06,3.08-1.9,4.87-2.3
			c0.78-0.17,1.57-0.11,2.3,0.28c1.34,0.78,1.79,2.07,1.06,3.47c-0.67,1.23-1.62,2.18-2.69,3.14c-1.06,0.9-2.18,1.74-3.42,2.46
			c-1.4,0.73-2.8,1.29-4.37,1.18c-0.45-0.06-0.73,0.17-0.95,0.56c-1.18,2.24-2.13,4.54-2.46,7.06c-0.17,1.29-0.17,2.63,0.17,3.86
			c0.39,1.4,0.9,1.62,2.24,1.01c2.02-0.95,3.58-2.41,5.04-4.03c3.47-3.75,6.1-8.06,8.57-12.49c2.13-3.86,4.26-7.78,6.38-11.65
			c0.22-0.39,0.5-0.73,0.5-1.29c-1.06,0.17-2.13,0.17-3.19,0.28c-1.79,0.11-3.53,0.28-5.26,0.39c-2.46,0.22-4.98,0.39-7.5,0.45
			c-1.4,0.06-2.8-0.06-4.2-0.22c-0.34-0.06-0.56-0.17-0.78-0.34c-0.5-0.5-0.39-1.06,0.28-1.23c0.45-0.11,0.9-0.17,1.34-0.22
			c3.42-0.22,6.89-0.5,10.36-0.62c3.08-0.17,6.1-0.28,9.18-0.22c0.73,0,1.18-0.22,1.51-0.9c1.34-2.24,2.8-4.42,4.59-6.38
			c0.62-0.73,1.34-1.4,2.07-1.96c0.28-0.17,0.56-0.34,0.84-0.45c0.84-0.34,1.68,0.28,1.62,1.23c-0.06,0.39-0.22,0.78-0.39,1.18
			c-0.56,1.4-1.34,2.69-2.13,3.98c-0.45,0.78-0.9,1.62-1.34,2.41c-0.34,0.62-0.28,0.73,0.39,0.78c1.51,0,2.97,0.06,4.42,0.11
			c1.18,0,2.3,0.11,3.47,0.17c0.45,0.06,0.84,0.11,1.06,0.56c0.22,0.34,0.11,0.62-0.28,0.67c-0.22,0-0.39,0-0.62,0
			c-2.91-0.11-5.82,0.06-8.74,0c-0.78,0-1.23,0.34-1.57,1.01c-1.68,3.25-3.3,6.61-4.7,9.97c-2.18,4.98-4.31,9.97-6.1,15.06
			c-1.34,3.92-2.63,7.9-3.58,11.93c-0.06,0.28-0.11,0.56-0.22,0.84c-0.17,0.45-0.34,0.56-0.73,0.5c-0.39-0.11-0.62-0.39-0.56-0.84
			c0.11-0.67,0.22-1.34,0.34-2.02c0.78-3.86,1.85-7.62,2.91-11.37c1.51-5.21,3.3-10.3,5.49-15.23c1.29-2.8,2.58-5.54,4.09-8.18
			C212.13,141.3,212.41,140.9,212.58,140.34z M199.31,148.8c-3.08,0.28-7.73,5.1-8.74,7.39
			C192.98,156.14,198.75,151.32,199.31,148.8z M219.36,130.26c-2.24,1.29-6.16,6.94-6.44,8.29c0.62,0.22,0.9-0.11,1.23-0.56
			c1.29-2.13,2.74-4.14,4.2-6.16C218.69,131.33,219.02,130.82,219.36,130.26z"/>
	</g>
	<g class="st1">
		<path class="st2" d="M30.37,215.72c3.58-0.06,6.44-0.34,9.35-0.73c4.76-0.67,9.46-1.57,14.06-2.86c4.42-1.18,8.79-2.69,12.88-4.82
			c1.57-0.84,3.08-1.79,4.37-3.14c0.5-0.56,0.9-1.18,1.18-1.85c0.39-0.78,0.28-1.57-0.28-2.3c-0.9-1.01-1.96-1.79-3.14-2.41
			c-2.13-1.23-4.48-1.96-6.89-2.52c-3.58-0.84-7.22-1.23-10.86-1.68c-2.97-0.39-5.88-0.67-8.74-1.57c-0.9-0.22-1.74-0.56-2.52-1.01
			c-2.97-1.51-4.65-3.98-4.98-7.28c-0.11-1.23,0.22-2.35,0.73-3.47c0.78-1.62,1.85-3.14,3.02-4.48c3.08-3.7,6.83-6.61,10.92-9.02
			c3.81-2.24,7.78-3.98,12.15-4.87c2.8-0.56,5.66-0.73,8.46-0.11c1.29,0.28,2.52,0.73,3.3,1.96c0.34,0.5,0.56,1.06,0.67,1.68
			c0.06,0.22,0.11,0.45,0,0.67c-0.11,0.22-0.34,0.34-0.5,0.17c-0.78-0.95-1.9-0.78-2.91-0.78c-3.25-0.11-6.44,0.28-9.52,1.12
			c-7.39,1.96-13.72,5.71-19.04,11.14c-1.46,1.51-2.8,3.14-3.7,5.1c-0.39,0.78-0.67,1.62-0.78,2.52c-0.11,0.95,0.17,1.68,1.01,2.18
			c1.23,0.73,2.52,1.12,3.86,1.51c2.46,0.73,4.98,1.06,7.5,1.4c4.31,0.56,8.62,1.06,12.82,2.18c2.07,0.5,4.03,1.18,5.88,2.18
			c2.18,1.23,4.03,2.86,5.15,5.15c1.34,2.86,0.9,5.66-1.29,7.95c-1.34,1.4-2.91,2.41-4.59,3.3c-3.58,1.85-7.39,3.02-11.31,4.03
			c-4.37,1.12-8.85,1.85-13.33,2.41c-3.42,0.45-6.83,0.78-10.3,0.78c-1.85-0.06-3.64-0.17-5.43-0.67c-2.07-0.56-3.86-1.51-4.98-3.42
			c-0.95-1.68-1.06-3.36-0.11-5.04c0.62-1.18,1.51-2.13,2.52-2.97c2.63-2.24,5.71-3.75,8.9-4.98c4.31-1.57,8.74-2.52,13.27-3.02
			c3.75-0.39,7.45-0.73,11.2-0.9c1.9-0.11,3.81,0,5.66,0.28c0.34,0.06,0.67,0.17,0.9,0.45c0.11,0.11,0.17,0.28,0.11,0.45
			c-0.06,0.17-0.22,0.17-0.34,0.17c-0.17,0-0.28,0-0.45,0c-2.58-0.34-5.15-0.11-7.78,0.11c-2.74,0.28-5.49,0.62-8.23,1.12
			c-5.77,1.01-11.42,2.52-16.74,5.21c-2.13,1.06-4.14,2.3-5.77,4.03c-0.56,0.62-1.06,1.23-1.46,1.9c-0.28,0.62-0.5,1.18-0.5,1.85
			c0,0.9,0.39,1.46,1.12,1.85c0.56,0.34,1.18,0.5,1.85,0.62C28.13,215.61,29.59,215.77,30.37,215.72z"/>
		<path class="st2" d="M83.68,201.94c1.12-0.84,2.07-1.9,3.08-2.97c3.08-3.3,5.94-6.72,8.96-10.08c0.84-0.84,1.74-1.68,2.69-2.41
			c0.67-0.5,1.06-0.45,1.68,0.11c0.56,0.56,0.73,1.23,0.62,2.02c-0.17,0.95-0.56,1.79-0.95,2.69c-1.06,2.24-2.18,4.42-3.19,6.66
			c-1.74,3.86-3.36,7.78-4.31,11.93c-0.62,2.52-1.01,5.1-0.95,7.73c0,0.45,0,0.95,0.11,1.4c0.17,0.73,0.39,0.84,1.12,0.5
			c0.78-0.39,1.46-0.95,2.07-1.57c2.52-2.46,4.42-5.38,5.6-8.68c0.9-2.74,1.9-5.43,3.25-8.01c0.9-1.85,2.02-3.53,3.36-5.1
			c0.45-0.56,0.95-1.01,1.51-1.46c0.17-0.11,0.39-0.22,0.56-0.34c0.28-0.11,0.56-0.11,0.73,0.11c0.11,0.28-0.11,0.39-0.28,0.56
			c-1.85,1.85-3.36,3.98-4.59,6.27c-1.06,1.96-1.9,3.98-2.58,6.05c-0.62,1.79-1.23,3.58-2.02,5.32c-1.06,2.3-2.35,4.37-3.98,6.27
			c-0.62,0.67-1.29,1.23-2.02,1.68c-2.02,1.29-4.54,0.45-5.38-1.79c-0.56-1.46-0.67-3.02-0.56-4.54c0.34-5.54,1.74-10.92,3.81-16.07
			c0.78-1.96,1.68-3.81,2.74-5.66c0.17-0.22,0.28-0.45,0.45-0.78c-0.34,0.11-0.45,0.39-0.62,0.56c-2.3,2.86-4.48,5.82-6.72,8.74
			c-0.73,0.95-1.46,1.9-2.35,2.74c-0.28,0.28-0.56,0.56-0.9,0.78c-0.73,0.56-1.51,0.62-2.35,0.28c-1.9-0.62-3.14-2.35-3.14-4.37
			c0-0.84,0.06-1.68,0.28-2.52c0.73-3.14,1.79-6.22,3.25-9.13c0.28-0.56,0.56-1.06,0.95-1.51c0.28-0.45,0.73-0.56,1.23-0.45
			c1.06,0.22,1.96,0.67,2.63,1.57c0.45,0.62,0.62,1.29,0.28,2.07c-0.67,1.57-1.29,3.14-1.96,4.65c-0.84,1.9-1.57,3.81-2.13,5.77
			c-0.06,0.28-0.11,0.56-0.17,0.84C83.57,201.89,83.63,201.89,83.68,201.94z"/>
		<path class="st2" d="M120.59,190.29c-0.9,0.84-1.51,1.62-2.13,2.35c-2.46,3.08-4.59,6.44-6.5,9.91c-1.06,2.07-2.18,4.14-3.14,6.27
			c-0.17,0.39-0.45,0.78-0.62,1.12c-0.34,0.67-0.9,0.84-1.57,0.78c-0.84-0.06-1.62-0.34-2.3-0.84c-0.73-0.45-0.78-1.23-0.78-2.02
			c0.06-1.01,0.28-2.02,0.56-2.97c1.12-4.82,2.63-9.46,4.59-14c0.67-1.51,1.46-2.91,2.35-4.31c0.28-0.39,0.56-0.78,0.9-1.12
			c0.67-0.62,1.4-0.67,2.18-0.28c0.73,0.39,1.06,1.06,0.9,1.96c-0.34,1.51-0.9,2.91-1.46,4.31c-0.67,1.85-1.34,3.7-2.02,5.49
			c-0.06,0.17-0.11,0.34-0.17,0.5c0.28,0,0.34-0.22,0.45-0.39c1.96-2.91,4.03-5.71,6.27-8.4c0.62-0.67,1.23-1.34,1.9-1.96
			c0.62-0.62,1.34-0.73,2.18-0.39c1.34,0.45,2.02,1.51,1.74,2.91c-0.11,0.95-0.28,1.85-0.45,2.74c-0.11,0.56-0.17,1.12-0.11,1.74
			c0,0.78,0.11,0.95,0.9,0.95c1.01,0,2.02-0.06,3.08-0.06c0.06,0,0.06-0.06,0.11-0.06c0.34,0,0.73,0,0.78,0.34
			c0.06,0.45-0.34,0.45-0.67,0.5c-0.84,0.17-1.74,0.34-2.63,0.62c-0.62,0.17-1.29,0.17-1.9-0.17c-1.46-0.73-2.41-1.85-2.46-3.53
			C120.59,191.69,120.59,191.13,120.59,190.29z"/>
		<path class="st2" d="M139.74,190.29c-0.9,0.84-1.51,1.62-2.13,2.35c-2.46,3.08-4.59,6.44-6.5,9.91c-1.06,2.07-2.18,4.14-3.14,6.27
			c-0.17,0.39-0.45,0.78-0.62,1.12c-0.34,0.67-0.9,0.84-1.57,0.78c-0.84-0.06-1.62-0.34-2.3-0.84c-0.73-0.45-0.78-1.23-0.78-2.02
			c0.06-1.01,0.28-2.02,0.56-2.97c1.12-4.82,2.63-9.46,4.59-14c0.67-1.51,1.46-2.91,2.35-4.31c0.28-0.39,0.56-0.78,0.9-1.12
			c0.67-0.62,1.4-0.67,2.18-0.28c0.73,0.39,1.06,1.06,0.9,1.96c-0.34,1.51-0.9,2.91-1.46,4.31c-0.67,1.85-1.34,3.7-2.02,5.49
			c-0.06,0.17-0.11,0.34-0.17,0.5c0.28,0,0.34-0.22,0.45-0.39c1.96-2.91,4.03-5.71,6.27-8.4c0.62-0.67,1.23-1.34,1.9-1.96
			c0.62-0.62,1.34-0.73,2.18-0.39c1.34,0.45,2.02,1.51,1.74,2.91c-0.11,0.95-0.28,1.85-0.45,2.74c-0.11,0.56-0.17,1.12-0.11,1.74
			c0,0.78,0.11,0.95,0.9,0.95c1.01,0,2.02-0.06,3.08-0.06c0.06,0,0.06-0.06,0.11-0.06c0.34,0,0.73,0,0.78,0.34
			c0.06,0.45-0.34,0.45-0.67,0.5c-0.84,0.17-1.74,0.34-2.63,0.62c-0.62,0.17-1.29,0.17-1.9-0.17c-1.46-0.73-2.41-1.85-2.46-3.53
			C139.74,191.69,139.74,191.13,139.74,190.29z"/>
		<path class="st2" d="M144.94,208.61c0,0.67,0.11,1.51,0.39,2.35c0.11,0.17,0.17,0.39,0.28,0.56c0.39,0.56,0.62,0.62,1.18,0.22
			c1.62-1.23,2.97-2.69,4.03-4.42c1.23-2.13,2.52-4.26,3.7-6.38c0.9-1.51,2.02-2.8,3.25-3.98c1.06-1.01,2.35-1.57,3.7-2.07
			c0.28-0.06,0.62-0.11,0.9-0.06c0.17,0,0.39,0.06,0.39,0.28c0,0.17-0.11,0.22-0.28,0.28c0,0.06-0.06,0.06-0.11,0.11
			c-2.8,1.06-4.7,3.14-6.27,5.6c-1.34,2.13-2.52,4.37-3.7,6.55c-0.73,1.23-1.51,2.41-2.46,3.47c-0.45,0.5-0.95,0.95-1.51,1.34
			c-1.74,1.34-5.1,1.01-6.16-1.68c-0.5-1.29-0.67-2.63-0.5-4.03c0.34-4.54,1.79-8.79,4.14-12.66c1.46-2.41,3.19-4.54,5.54-6.1
			c1.23-0.78,2.46-1.23,3.92-1.18c0.9,0.06,1.74,0.39,2.35,1.06c0.67,0.62,0.78,1.4,0.45,2.24c-0.45,1.01-1.12,1.9-1.9,2.63
			c-0.78,0.73-1.62,1.34-2.52,1.9c-1.23,0.78-2.52,1.18-3.98,0.84c-0.39-0.11-0.62,0.11-0.78,0.39c-0.84,1.4-1.51,2.86-2.13,4.37
			c-0.84,2.18-1.51,4.37-1.79,6.66C145,207.43,144.94,207.88,144.94,208.61z M150.32,194.83c0.62,0,1.12-0.17,1.57-0.45
			c1.68-0.95,3.08-2.24,4.14-3.92c0.22-0.39,0.39-0.84,0.5-1.34c0.06-0.28-0.11-0.39-0.39-0.34c-0.45,0.11-0.9,0.34-1.29,0.62
			c-1.96,1.29-3.47,3.02-4.87,4.93c-0.06,0.11-0.17,0.22-0.11,0.39C149.98,194.89,150.21,194.83,150.32,194.83z"/>
		<path class="st2" d="M165.5,199.76c0.5-0.22,0.67-0.5,0.9-0.73c3.08-3.02,5.99-6.16,9.02-9.18c1.34-1.34,2.8-2.58,4.42-3.58
			c0.39-0.28,0.84-0.56,1.29-0.78c1.23-0.62,2.35-0.34,3.25,0.73c0.73,0.95,0.95,1.96,0.73,3.14c-0.34,1.62-1.01,3.08-1.74,4.59
			c-1.79,3.81-3.58,7.67-5.26,11.54c-0.67,1.62-1.29,3.19-1.79,4.87c-0.34,1.23-0.5,2.52-0.45,3.86c0,0.84,0.11,0.9,0.84,0.5
			c2.52-1.34,4.54-3.25,6.33-5.43c2.13-2.58,3.75-5.49,5.43-8.29c1.46-2.35,2.86-4.76,4.54-6.94c0.28-0.34,0.56-0.62,0.9-0.95
			c0.17-0.11,0.34-0.22,0.56-0.28c0.22-0.06,0.39,0,0.56,0.17c0.06,0.17,0,0.34-0.11,0.45c-0.34,0.5-0.67,1.01-1.01,1.51
			c-2.24,3.53-4.37,7.17-6.5,10.81c-1.74,2.91-3.75,5.66-6.1,8.06c-0.84,0.84-1.79,1.62-2.74,2.35c-2.13,1.51-4.76,0.9-5.99-1.51
			c-0.73-1.46-0.9-3.02-0.62-4.59c0.84-4.87,2.58-9.41,4.76-13.83c1.23-2.52,2.52-4.98,3.98-7.39c0.17-0.28,0.34-0.62,0.56-1.01
			c-0.28-0.06-0.45,0.11-0.62,0.22c-1.46,0.78-2.69,1.79-3.86,2.86c-1.96,1.85-3.81,3.81-5.49,5.88c-2.18,2.69-4.31,5.38-6.5,8.06
			c-0.9,1.01-1.57,1.23-2.86,0.78c-0.17,0-0.28-0.06-0.39-0.11c-1.85-0.73-2.63-2.07-2.24-3.98c1.01-4.82,2.63-9.35,5.43-13.38
			c0.56-0.84,1.23-1.57,1.9-2.3c1.23-1.29,2.63-1.06,3.98-0.11c0.17,0.11,0.28,0.22,0.39,0.39c0.56,0.5,0.67,1.12,0.39,1.85
			c-0.45,1.06-0.95,2.13-1.46,3.14c-1.34,2.52-2.74,4.98-4.03,7.56C165.78,199.03,165.55,199.31,165.5,199.76z"/>
		<path class="st2" d="M198.7,201.72c-0.22,0.34-0.45,0.67-0.62,1.01c-0.95,1.4-1.96,2.69-3.36,3.7c-0.78,0.56-1.62,0.73-2.52,0.45
			c-1.57-0.45-2.24-1.29-2.3-2.97c0-0.78,0.17-1.57,0.34-2.35c0.73-3.47,2.02-6.72,4.09-9.69c0.39-0.5,0.9-1.01,1.4-1.46
			c1.79-1.62,3.86-2.07,6.16-1.23c0.62,0.22,0.62,0.22,0.9-0.39c0.73-1.74,1.51-3.42,2.41-5.1c1.74-3.42,3.81-6.61,6.44-9.3
			c1.9-2.02,4.03-3.75,6.66-4.7c0.62-0.22,1.23-0.39,1.9-0.5c0.5-0.11,1.06-0.11,1.57,0.06c1.85,0.45,2.8,1.96,2.35,3.86
			c-0.22,0.95-0.67,1.9-1.18,2.74c-3.42,5.82-8.01,10.47-13.72,13.94c-0.95,0.56-1.96,1.06-3.02,1.34c-0.5,0.11-0.73,0.39-0.9,0.84
			c-1.74,4.65-3.08,9.35-3.92,14.22c-0.28,1.57-0.45,3.19-0.56,4.76c-0.06,1.34,0.06,2.63,0.34,3.92c0.11,0.5,0.34,1.06,0.67,1.51
			c0.5,0.78,0.95,0.84,1.68,0.28c0.84-0.73,1.57-1.57,2.13-2.63c0.67-1.29,1.12-2.69,1.46-4.09c0.62-2.41,1.51-4.7,2.46-6.94
			c1.29-3.02,3.08-5.77,5.71-7.78c0.34-0.22,0.62-0.5,1.01-0.56c0.17-0.06,0.34,0,0.39,0.11c0.11,0.17-0.06,0.28-0.17,0.34
			c-0.78,0.67-1.51,1.46-2.18,2.24c-2.02,2.46-3.47,5.21-4.54,8.18c-0.62,1.74-1.23,3.53-1.74,5.32c-0.5,2.02-1.23,3.98-2.69,5.6
			c-0.84,0.95-1.85,1.62-3.19,1.62c-1.12-0.06-2.02-0.5-2.69-1.4c-1.01-1.34-1.29-2.91-1.46-4.54c-0.28-3.08,0.11-6.1,0.56-9.13
			c0.11-0.39,0.17-0.78,0.22-1.23C198.76,201.77,198.7,201.77,198.7,201.72z M201.61,191.25c-0.39-0.06-0.67,0.17-0.9,0.34
			c-0.95,0.5-1.68,1.18-2.41,2.02c-1.57,1.9-2.8,4.03-3.86,6.33c-0.62,1.46-1.18,2.97-1.4,4.59c0,0.17-0.11,0.45,0.17,0.5
			c0.17,0.11,0.28-0.06,0.45-0.11c0.11-0.11,0.22-0.17,0.34-0.28c1.01-0.78,1.85-1.74,2.58-2.8c1.96-2.91,3.92-5.94,4.76-9.46
			C201.39,192.03,201.61,191.69,201.61,191.25z M205.93,190.18c0.84-0.22,1.4-0.56,1.96-0.95c3.42-2.18,6.55-4.7,9.13-7.84
			c2.02-2.46,3.81-5.04,5.1-8.01c0.22-0.62,0.45-1.23,0.5-1.85c0.06-0.73-0.11-0.95-0.9-0.84c-0.9,0.17-1.74,0.5-2.52,0.95
			c-2.41,1.34-4.42,3.19-6.16,5.38c-2.13,2.63-3.81,5.6-5.26,8.74C207.1,187.16,206.49,188.56,205.93,190.18z"/>
		<path class="st2" d="M214.77,208.61c0,0.67,0.11,1.51,0.39,2.35c0.11,0.17,0.17,0.39,0.28,0.56c0.39,0.56,0.62,0.62,1.18,0.22
			c1.62-1.23,2.97-2.69,4.03-4.42c1.23-2.13,2.52-4.26,3.7-6.38c0.9-1.51,2.02-2.8,3.25-3.98c1.06-1.01,2.35-1.57,3.7-2.07
			c0.28-0.06,0.62-0.11,0.9-0.06c0.17,0,0.39,0.06,0.39,0.28c0,0.17-0.11,0.22-0.28,0.28c0,0.06-0.06,0.06-0.11,0.11
			c-2.8,1.06-4.7,3.14-6.27,5.6c-1.34,2.13-2.52,4.37-3.7,6.55c-0.73,1.23-1.51,2.41-2.46,3.47c-0.45,0.5-0.95,0.95-1.51,1.34
			c-1.74,1.34-5.1,1.01-6.16-1.68c-0.5-1.29-0.67-2.63-0.5-4.03c0.34-4.54,1.79-8.79,4.14-12.66c1.46-2.41,3.19-4.54,5.54-6.1
			c1.23-0.78,2.46-1.23,3.92-1.18c0.9,0.06,1.74,0.39,2.35,1.06c0.67,0.62,0.78,1.4,0.45,2.24c-0.45,1.01-1.12,1.9-1.9,2.63
			c-0.78,0.73-1.62,1.34-2.52,1.9c-1.23,0.78-2.52,1.18-3.98,0.84c-0.39-0.11-0.62,0.11-0.78,0.39c-0.84,1.4-1.51,2.86-2.13,4.37
			c-0.84,2.18-1.51,4.37-1.79,6.66C214.83,207.43,214.77,207.88,214.77,208.61z M220.15,194.83c0.62,0,1.12-0.17,1.57-0.45
			c1.68-0.95,3.08-2.24,4.14-3.92c0.22-0.39,0.39-0.84,0.5-1.34c0.06-0.28-0.11-0.39-0.39-0.34c-0.45,0.11-0.9,0.34-1.29,0.62
			c-1.96,1.29-3.47,3.02-4.87,4.93c-0.06,0.11-0.17,0.22-0.11,0.39C219.81,194.89,220.04,194.83,220.15,194.83z"/>
		<path class="st2" d="M244.34,190.29c-0.9,0.84-1.51,1.62-2.13,2.35c-2.46,3.08-4.59,6.44-6.5,9.91c-1.06,2.07-2.18,4.14-3.14,6.27
			c-0.17,0.39-0.45,0.78-0.62,1.12c-0.34,0.67-0.9,0.84-1.57,0.78c-0.84-0.06-1.62-0.34-2.3-0.84c-0.73-0.45-0.78-1.23-0.78-2.02
			c0.06-1.01,0.28-2.02,0.56-2.97c1.12-4.82,2.63-9.46,4.59-14c0.67-1.51,1.46-2.91,2.35-4.31c0.28-0.39,0.56-0.78,0.9-1.12
			c0.67-0.62,1.4-0.67,2.18-0.28c0.73,0.39,1.06,1.06,0.9,1.96c-0.34,1.51-0.9,2.91-1.46,4.31c-0.67,1.85-1.34,3.7-2.02,5.49
			c-0.06,0.17-0.11,0.34-0.17,0.5c0.28,0,0.34-0.22,0.45-0.39c1.96-2.91,4.03-5.71,6.27-8.4c0.62-0.67,1.23-1.34,1.9-1.96
			c0.62-0.62,1.34-0.73,2.18-0.39c1.34,0.45,2.02,1.51,1.74,2.91c-0.11,0.95-0.28,1.85-0.45,2.74c-0.11,0.56-0.17,1.12-0.11,1.74
			c0,0.78,0.11,0.95,0.9,0.95c1.01,0,2.02-0.06,3.08-0.06c0.06,0,0.06-0.06,0.11-0.06c0.34,0,0.73,0,0.78,0.34
			c0.06,0.45-0.34,0.45-0.67,0.5c-0.84,0.17-1.74,0.34-2.63,0.62c-0.62,0.17-1.29,0.17-1.9-0.17c-1.46-0.73-2.41-1.85-2.46-3.53
			C244.34,191.69,244.34,191.13,244.34,190.29z"/>
	</g>
	<g class="st1">
		<path class="st2" d="M69.55,237.84l5.79-13.15h4.88v0.54h-0.59c-0.78,0-1.29,0.06-1.54,0.19s-0.4,0.37-0.49,0.72
			s-0.12,1.19-0.12,2.51v7.79c0,1.25,0.03,2.07,0.09,2.46s0.22,0.67,0.47,0.86s0.74,0.28,1.46,0.28h0.7v0.54h-7.59v-0.54h0.56
			c0.67,0,1.14-0.09,1.4-0.26s0.43-0.44,0.5-0.8s0.11-1.21,0.11-2.54v-10.11l-6.29,14.25h-0.55l-6.34-14.25v9.3
			c0,1.27,0.04,2.14,0.12,2.6s0.32,0.87,0.73,1.21s0.98,0.54,1.71,0.59v0.54h-5.68v-0.54c0.68-0.04,1.23-0.22,1.66-0.56
			s0.69-0.74,0.78-1.22s0.14-1.38,0.14-2.7v-6.91c0-1.27-0.04-2.08-0.11-2.45s-0.23-0.62-0.47-0.76s-0.76-0.21-1.56-0.21h-0.43
			v-0.54h4.84L69.55,237.84z"/>
		<path class="st2" d="M84.54,230.6v6.69c0,1.02,0.02,1.67,0.05,1.93s0.14,0.47,0.34,0.61s0.54,0.21,1.04,0.21h0.25v0.54h-5.17
			v-0.54h0.4c0.55,0,0.92-0.08,1.08-0.24s0.27-0.35,0.29-0.57s0.04-0.87,0.04-1.94v-2.91c0-1.12-0.05-1.81-0.16-2.06
			s-0.25-0.41-0.42-0.47s-0.48-0.09-0.92-0.09h-0.32v-0.54c1.39-0.14,2.47-0.35,3.23-0.62H84.54z M82.27,225.7
			c0-0.34,0.12-0.62,0.36-0.87s0.53-0.36,0.86-0.36s0.62,0.12,0.86,0.36s0.35,0.53,0.35,0.87c0,0.34-0.12,0.64-0.35,0.88
			s-0.52,0.36-0.86,0.36s-0.62-0.12-0.86-0.36S82.27,226.04,82.27,225.7z"/>
		<path class="st2" d="M89.97,230.6h0.32c0.18,0.48,0.28,1.14,0.3,1.98c0.56-0.66,1.15-1.16,1.77-1.49s1.26-0.49,1.93-0.49
			c0.77,0,1.39,0.16,1.88,0.48s0.8,0.71,0.94,1.18s0.21,1.14,0.21,2.03v3c0,1.11,0.02,1.79,0.06,2.03s0.16,0.42,0.37,0.54
			s0.59,0.18,1.14,0.18v0.54h-4.91v-0.54h0.22c0.56,0,0.93-0.08,1.1-0.25s0.27-0.36,0.29-0.57s0.04-0.86,0.04-1.93v-3.09
			c0-0.76-0.04-1.3-0.11-1.62s-0.27-0.61-0.6-0.86s-0.74-0.38-1.24-0.38c-0.57,0-1.12,0.17-1.63,0.51s-1.01,0.85-1.47,1.53v3.91
			c0,1.11,0.02,1.79,0.06,2.03s0.17,0.42,0.38,0.54s0.59,0.18,1.15,0.18v0.54h-4.85v-0.54c0.54,0,0.91-0.05,1.12-0.16
			s0.34-0.28,0.39-0.5s0.08-0.92,0.08-2.09v-2.86c0-1.12-0.02-1.79-0.06-2.03s-0.17-0.42-0.38-0.54s-0.59-0.18-1.15-0.18v-0.54
			C88.2,231.04,89.08,230.87,89.97,230.6z"/>
		<path class="st2" d="M103.29,230.6v6.69c0,1.02,0.02,1.67,0.05,1.93s0.14,0.47,0.34,0.61s0.54,0.21,1.04,0.21h0.25v0.54h-5.17
			v-0.54h0.4c0.55,0,0.92-0.08,1.08-0.24s0.27-0.35,0.29-0.57s0.04-0.87,0.04-1.94v-2.91c0-1.12-0.05-1.81-0.16-2.06
			s-0.25-0.41-0.42-0.47s-0.48-0.09-0.92-0.09h-0.32v-0.54c1.39-0.14,2.47-0.35,3.23-0.62H103.29z M101.02,225.7
			c0-0.34,0.12-0.62,0.36-0.87s0.53-0.36,0.86-0.36s0.62,0.12,0.86,0.36s0.35,0.53,0.35,0.87c0,0.34-0.12,0.64-0.35,0.88
			s-0.52,0.36-0.86,0.36s-0.62-0.12-0.86-0.36S101.02,226.04,101.02,225.7z"/>
		<path class="st2" d="M106.39,240.89v-3.15h0.46c0.53,1.82,1.48,2.73,2.85,2.73c0.59,0,1.04-0.18,1.33-0.54s0.44-0.75,0.44-1.18
			c0-0.5-0.16-0.91-0.47-1.23c-0.32-0.32-0.94-0.71-1.86-1.16c-0.97-0.48-1.66-0.95-2.09-1.41c-0.42-0.45-0.63-1.01-0.63-1.68
			c0-0.63,0.23-1.24,0.68-1.81s1.09-0.86,1.91-0.86c0.84,0,1.53,0.34,2.07,1.02c0.12-0.12,0.27-0.4,0.46-0.86h0.43v2.96h-0.43
			c-0.16-0.71-0.46-1.32-0.91-1.83s-0.98-0.77-1.59-0.77c-0.47,0-0.85,0.14-1.14,0.43s-0.43,0.62-0.43,1.01
			c0,0.42,0.16,0.79,0.48,1.09c0.31,0.31,0.91,0.67,1.79,1.07c1.33,0.6,2.14,1.19,2.44,1.76c0.3,0.58,0.45,1.13,0.45,1.66
			c0,0.84-0.28,1.52-0.83,2.04s-1.24,0.79-2.08,0.79c-0.88,0-1.67-0.36-2.36-1.09c-0.21,0.23-0.38,0.57-0.52,1.01H106.39z"/>
		<path class="st2" d="M120.01,231.53h-2.89v5.8c0,0.89,0.04,1.49,0.12,1.8s0.24,0.56,0.5,0.74s0.53,0.28,0.81,0.28
			c0.56,0,1.05-0.32,1.46-0.96l0.38,0.22c-0.24,0.52-0.6,0.9-1.07,1.17s-0.95,0.39-1.44,0.39c-0.56,0-1.06-0.17-1.48-0.5
			s-0.69-0.72-0.8-1.17s-0.16-1.23-0.16-2.34v-5.44h-1.39v-0.54c0.64-0.02,1.21-0.29,1.72-0.81s0.83-1.26,0.97-2.2h0.38v3.01h2.89
			V231.53z"/>
		<path class="st2" d="M124.42,233.05c0.27-0.7,0.7-1.28,1.29-1.75s1.18-0.7,1.75-0.7c0.52,0,0.92,0.16,1.22,0.48
			s0.45,0.65,0.45,0.98c0,0.23-0.08,0.42-0.23,0.59s-0.34,0.25-0.56,0.25c-0.39,0-0.69-0.29-0.89-0.87
			c-0.14-0.39-0.35-0.59-0.63-0.59c-0.34,0-0.74,0.23-1.21,0.69s-0.77,0.93-0.9,1.42s-0.2,1.17-0.2,2.03v1.71
			c0,1.02,0.01,1.67,0.04,1.93s0.14,0.47,0.33,0.61s0.54,0.21,1.04,0.21h0.33v0.54h-5.1v-0.54h0.25c0.47,0,0.8-0.06,1-0.19
			s0.32-0.31,0.36-0.54s0.06-0.91,0.06-2.02v-2.71c0-1.03-0.01-1.68-0.04-1.94s-0.14-0.46-0.33-0.61s-0.54-0.22-1.04-0.22h-0.25
			v-0.53c0.73-0.09,1.7-0.32,2.88-0.69C124.27,231.22,124.39,232.03,124.42,233.05z"/>
		<path class="st2" d="M135.63,238.77l2.23-5.33c0.32-0.78,0.48-1.21,0.48-1.3c0-0.39-0.43-0.59-1.3-0.61v-0.54h3.38v0.54
			c-0.52,0.02-0.91,0.16-1.15,0.42s-0.54,0.81-0.9,1.68l-4.28,10.32c-0.41,0.98-0.77,1.65-1.08,2.01s-0.66,0.53-1.03,0.53
			c-0.51,0-0.76-0.23-0.76-0.69c0-0.53,0.41-0.98,1.22-1.35c0.48-0.21,0.79-0.39,0.96-0.54s0.32-0.42,0.47-0.81l0.91-2.29
			l-3.61-7.73c-0.32-0.68-0.59-1.11-0.8-1.29s-0.57-0.27-1.08-0.27v-0.54h4.41v0.54c-0.77,0.02-1.16,0.18-1.16,0.48
			c0,0.12,0.15,0.5,0.46,1.15L135.63,238.77z"/>
		<path class="st2" d="M161.58,234.62h0.5v5.57h-0.5c-0.14-0.63-0.39-1.19-0.76-1.68c-1.4,1.58-3.18,2.37-5.36,2.37
			c-2.3,0-4.17-0.73-5.63-2.18s-2.19-3.38-2.19-5.77c0-1.57,0.34-3.05,1.01-4.44s1.61-2.42,2.81-3.09s2.52-1.01,3.96-1.01
			c1.19,0,2.26,0.24,3.23,0.73s1.69,1.03,2.16,1.62c0.34-0.66,0.54-1.35,0.61-2.06h0.52l0.14,6.02h-0.5
			c-0.35-2.14-1.07-3.63-2.15-4.46s-2.3-1.25-3.66-1.25c-1.66,0-2.99,0.68-3.97,2.03s-1.47,3.29-1.47,5.8
			c0,2.38,0.54,4.21,1.61,5.48s2.4,1.9,4,1.9c0.85,0,1.72-0.21,2.61-0.62s1.6-1.12,2.12-2.1S161.48,235.54,161.58,234.62z"/>
		<path class="st2" d="M173.25,234.23h-6.69c-0.03,0.46-0.05,0.8-0.05,1.03c0,1.69,0.26,2.96,0.79,3.8s1.31,1.27,2.36,1.27
			c1.42,0,2.43-0.64,3.02-1.91h0.56c-0.25,0.8-0.75,1.42-1.49,1.87s-1.55,0.67-2.43,0.67c-0.81,0-1.58-0.21-2.3-0.62
			s-1.31-0.99-1.78-1.74s-0.69-1.66-0.69-2.73c0-1.52,0.45-2.78,1.34-3.78s2-1.51,3.34-1.51c1.26,0,2.23,0.38,2.92,1.15
			S173.21,233.34,173.25,234.23z M171.2,233.76c0.02-0.18,0.04-0.34,0.04-0.48c0-0.69-0.2-1.22-0.6-1.6s-0.9-0.57-1.48-0.57
			c-1.42,0-2.27,0.88-2.54,2.65H171.2z"/>
		<path class="st2" d="M177.47,230.6h0.32c0.18,0.48,0.28,1.14,0.3,1.98c0.56-0.66,1.15-1.16,1.77-1.49s1.26-0.49,1.93-0.49
			c0.77,0,1.39,0.16,1.88,0.48s0.8,0.71,0.94,1.18s0.21,1.14,0.21,2.03v3c0,1.11,0.02,1.79,0.06,2.03s0.16,0.42,0.37,0.54
			s0.59,0.18,1.14,0.18v0.54h-4.91v-0.54h0.22c0.56,0,0.93-0.08,1.1-0.25s0.27-0.36,0.29-0.57s0.04-0.86,0.04-1.93v-3.09
			c0-0.76-0.04-1.3-0.11-1.62s-0.27-0.61-0.6-0.86s-0.74-0.38-1.24-0.38c-0.57,0-1.12,0.17-1.63,0.51s-1.01,0.85-1.47,1.53v3.91
			c0,1.11,0.02,1.79,0.06,2.03s0.17,0.42,0.38,0.54s0.59,0.18,1.15,0.18v0.54h-4.85v-0.54c0.54,0,0.91-0.05,1.12-0.16
			s0.34-0.28,0.39-0.5s0.08-0.92,0.08-2.09v-2.86c0-1.12-0.02-1.79-0.06-2.03s-0.17-0.42-0.38-0.54s-0.59-0.18-1.15-0.18v-0.54
			C175.69,231.04,176.57,230.87,177.47,230.6z"/>
		<path class="st2" d="M193.5,231.53h-2.89v5.8c0,0.89,0.04,1.49,0.12,1.8s0.24,0.56,0.5,0.74s0.53,0.28,0.81,0.28
			c0.56,0,1.05-0.32,1.46-0.96l0.38,0.22c-0.24,0.52-0.6,0.9-1.07,1.17s-0.95,0.39-1.44,0.39c-0.56,0-1.06-0.17-1.48-0.5
			s-0.69-0.72-0.8-1.17s-0.16-1.23-0.16-2.34v-5.44h-1.39v-0.54c0.64-0.02,1.21-0.29,1.72-0.81s0.83-1.26,0.97-2.2h0.38v3.01h2.89
			V231.53z"/>
		<path class="st2" d="M203.49,234.23h-6.69c-0.03,0.46-0.05,0.8-0.05,1.03c0,1.69,0.26,2.96,0.79,3.8s1.31,1.27,2.36,1.27
			c1.42,0,2.43-0.64,3.02-1.91h0.56c-0.25,0.8-0.75,1.42-1.49,1.87s-1.55,0.67-2.43,0.67c-0.81,0-1.58-0.21-2.3-0.62
			s-1.31-0.99-1.78-1.74s-0.69-1.66-0.69-2.73c0-1.52,0.45-2.78,1.34-3.78s2-1.51,3.34-1.51c1.26,0,2.23,0.38,2.92,1.15
			S203.45,233.34,203.49,234.23z M201.44,233.76c0.02-0.18,0.04-0.34,0.04-0.48c0-0.69-0.2-1.22-0.6-1.6s-0.9-0.57-1.48-0.57
			c-1.42,0-2.27,0.88-2.54,2.65H201.44z"/>
		<path class="st2" d="M208.4,233.05c0.27-0.7,0.7-1.28,1.29-1.75s1.18-0.7,1.75-0.7c0.52,0,0.92,0.16,1.22,0.48
			s0.45,0.65,0.45,0.98c0,0.23-0.08,0.42-0.23,0.59s-0.34,0.25-0.56,0.25c-0.39,0-0.69-0.29-0.89-0.87
			c-0.14-0.39-0.35-0.59-0.63-0.59c-0.34,0-0.74,0.23-1.21,0.69s-0.77,0.93-0.9,1.42s-0.2,1.17-0.2,2.03v1.71
			c0,1.02,0.01,1.67,0.04,1.93s0.14,0.47,0.33,0.61s0.54,0.21,1.04,0.21h0.33v0.54h-5.1v-0.54h0.25c0.47,0,0.8-0.06,1-0.19
			s0.32-0.31,0.36-0.54s0.06-0.91,0.06-2.02v-2.71c0-1.03-0.01-1.68-0.04-1.94s-0.14-0.46-0.33-0.61s-0.54-0.22-1.04-0.22h-0.25
			v-0.53c0.73-0.09,1.7-0.32,2.88-0.69C208.25,231.22,208.38,232.03,208.4,233.05z"/>
	</g>
</g>
<g id="Circle" class="st0">
	<path class="st3" d="M160.88,84.78c37.5-25.5,81.64-44.94,127.18-48.87c35.54-3.06,73.84,5.17,107.62,15.84
		c22.41,7.08,41.65,17.24,61.36,29.74c0,0,123.93,78.61,89.25,275.42c0,0-23,114.76-169.98,156.69c0,0-171.56,22.78-236.8-64.46
		c0,0,12.93,22.54,38.35,39.05c0,0,70.01,50.19,200.36,31.53c0,0,131.57-24.81,177-159.39c0,0,47.25-186.95-95.1-286.17
		C390.57,25.69,293.63,13.03,216.63,50.5C212.49,52.51,186.13,65.03,160.88,84.78z"/>
</g>
<g id="glow">
	
		<radialGradient id="SVGID_1_" cx="73.6872" cy="296.5472" r="64.427" gradientTransform="matrix(1.7122 0 0 1 -1.1289 0)" gradientUnits="userSpaceOnUse">
		<stop  offset="0" style="stop-color:#FEDDA6"/>
		<stop  offset="0.2621" style="stop-color:#FEDEA9;stop-opacity:0.7379"/>
		<stop  offset="0.4618" style="stop-color:#FEE2B3;stop-opacity:0.538"/>
		<stop  offset="0.641" style="stop-color:#FEE8C3;stop-opacity:0.3588"/>
		<stop  offset="0.808" style="stop-color:#FFF1DA;stop-opacity:0.1918"/>
		<stop  offset="0.9652" style="stop-color:#FFFCF7;stop-opacity:0.0345"/>
		<stop  offset="0.9998" style="stop-color:#FFFFFF;stop-opacity:0"/>
	</radialGradient>
	<path class="st4" d="M233.27,292.51c0,38.47-76.67,69.65-171.24,69.66c-41.26,0.01-45.22-34.82-45.22-73.29
		s18.21-52.48,73.64-56.81C184.74,224.7,233.27,254.03,233.27,292.51z"/>
</g>
<g id="Layer_8">
	<defs>
		<filter id="Adobe_OpacityMaskFilter" filterUnits="userSpaceOnUse" x="40.76" y="33.52" width="507.91" height="507.8">
			<feColorMatrix  type="matrix" values="1 0 0 0 0  0 1 0 0 0  0 0 1 0 0  0 0 0 1 0"/>
		</filter>
	</defs>
	
		<mask maskUnits="userSpaceOnUse" x="40.76" y="33.52" width="507.91" height="507.8" id="SVGID_00000182523494243743082270000011643215157712960145_">
		<g class="st5">
			
				<linearGradient id="SVGID_00000118386378204553404410000008911679096853003922_" gradientUnits="userSpaceOnUse" x1="292.7942" y1="478.6035" x2="292.7942" y2="80.1473">
				<stop  offset="0.3772" style="stop-color:#FFFFFF"/>
				<stop  offset="0.4376" style="stop-color:#F3F3F3"/>
				<stop  offset="0.5466" style="stop-color:#D4D3D4"/>
				<stop  offset="0.6918" style="stop-color:#A2A0A1"/>
				<stop  offset="0.8654" style="stop-color:#5D5A5B"/>
				<stop  offset="1" style="stop-color:#231F20"/>
			</linearGradient>
			<path style="fill:url(#SVGID_00000118386378204553404410000008911679096853003922_);" d="M553.14,296.55
				c0,141.39-116.56,249.37-260.35,249.37S32.45,431.3,32.45,289.91s116.72-249.19,260.35-256
				C468.92,25.56,553.14,155.16,553.14,296.55z"/>
		</g>
	</mask>
	<g style="mask:url(#SVGID_00000182523494243743082270000011643215157712960145_);">
		<path class="st8" d="M329.25,109.91c0,0-14.54,12.75-12.17,19.9c0,0-14.49,10.99-11.07,41.35c0,0-14.32,25-10.25,34.82
			c0,0,1.95,7.64-0.57,11.75c0,0-5.06,6.44-3.79,12.19c0,0-1.23,5.45-5.22,7.83c0,0-6.05,6.1-4.35,13.06c0,0,1.23,15.33-4.79,30.9
			c0,0-21.5-4.21-33.52,4.79c0,0-32.04,15.49-46.14,5.66c0,0,1.39,27.35,14.65,45.7c0,0-2.57-4.9-32.07,4.16l10.78,15.54
			c0,0-20.15-1.97-22.96-0.99c0,0,35.06,27.93,61.22,67.03c0,0-48.24,33.32-46.43,45.7c0,0,2.35,5.03-1.74,9.59
			c0,0-10.16,5.21-6.09,30.45c0,0-9.99,20.97,51.96,0c0,0,2.34,26.74,21.88,26.55c0,0,30.79,13.09,57.42-3.48
			c0,0,53.57-6.77,58.52-19.15c0,0,14.83,8.41,10.45-5.22l21.33,1.31c0,0-9.79-18.67,0-40.92l29.16,3.92v25.25
			c0,0,55.18-28.19,84.43-71.39c0,0-8.62-20.68-16.14-30.05c0,0-0.77,3.59-11.07-26.55c0,0-13.52,5.65-33.23-2.98
			c0,0-21.72-16.97-90.7-7.55c0,0,43.39-35.06,44.69-40.62c0,0,1.51,2.6,7.43,1.65c0,0,19.29-1.04,19.75,0.12
			c0,0,21.56,3.48,29.99,10.69c0,0,15.34,9.58,29.19,7.73c0,0,5.03-2.61,5.6-0.02l5.36-9.92l6.09,3.48c0,0,7.48,6.77,10.45-3.48
			c0,0,17.56-51.52,2.18-79.66c0,0-16.96-73.49-13.49-72.69c0,0-15.87-84.64-84.01-101.42c0,0-30.26-5.98-42.66,15.67l-1.09,3.13
			c0,0-2.98,2.63-5.73,6.96c0,0-7.22,10.45-7.36,7.95c0,0,0.59,4.69-21.65,8.47c0,0-9.01,3.28-11.94-3.95L329.25,109.91z"/>
		<path class="st9" d="M358.75,359.1c0,0,42.49-34.9,44.69-40.62c0,0-1.42,2.51,20.78,1.65c0,0,15.65-2.37,36.4,10.82
			c0,0,10.3,8.76,29.19,7.73c0,0,1.74-2.57,6.17-0.8l4.79-9.14l6.09,3.48c0,0,7.33,7.38,10.45-3.48c0,0,15.04-38.92,4.34-74.88
			l20.53,31.42c0,0,8.84,11.78,5.49,25.07c0,0-2.1,28.22-6.87,32.96c0,0-6.16,15.85-19.92,7.38l-5.99-1.95l-23.89,10.37
			c0,0-6.7,21.45-41.55,7.55c0,0-15.59-9.42-44.26-9.64"/>
		<path class="st9" d="M510.84,427.03c0,0,29.14-38.21,35.45-71.37l-8.92-16.58c0,0-4.08,18.72-16.49,11.6l-5.99-1.95l-23.89,10.37
			c0,0-3.25,7.33-8.32,9.34c0,0,8.22,27.49,11.07,27.74C493.75,396.19,508.67,418.96,510.84,427.03z"/>
		<path class="st8" d="M396.29,509.37c0,0-8.19,2.4-19.98,3.16c-11.79,0.76,0-12.05,0-12.05"/>
		<path class="st10" d="M396.29,509.37c0,0,24.15-6.84,29.16-11.75v-25.25l-29.16-3.92C396.29,468.46,387,486.13,396.29,509.37z"/>
		<path class="st10" d="M188.67,518.1c0,0,3.68,13.46,16.11,10.42c0,0,9.99-2.14,13.93,6.09c0,0,15.6,7.89,25.58,0.87
			c0,0-14.43-1.16-17.58-26.12C226.7,509.37,197.45,517.97,188.67,518.1z"/>
		<path class="st10" d="M180.16,342.34l10.57,15.24c0,0-29.06-2.84-47.04-1.1c0,0-20.27,2.37-26.96,4.9c0,0-15.06,7.35-28.24-3.8
			c0,0-6.63-0.17-8.8-3.59l-2.2-0.82l-6.78-3.42c0,0-5.12-2.39-11.34-10.83c0,0-14.8-10.99-9.73-17.16c0,0-8.31-5.27-6.69-8.3
			c0,0-4.74-1.34,2.48-3.3c0,0,0.82-4.76,6.35-5.27l6.73-0.53c0,0,18.43-1.82,19.17,0c0,0-2.68-5.29,7.81-7.83l10.5-2.55
			c0,0-10.82-1.33-4.86-7.35c0,0,20.84-2.82,29.53-6.88c0,0,24.56-6.89,33.14,5.8c0,0,13.93,18.96,44.36,13.49
			c0,0,2.83,22.02,13.33,38.4C211.5,337.43,201.3,333.98,180.16,342.34z"/>
		<path class="st10" d="M365.14,108.68c0,0-0.58,4.77-21.65,8.47c0,0-8.25,3.56-11.94-3.95c0,0-0.85-5.25-22.03-18.04
			c0,0,5.77-7.84,5.12-9.47c0,0,6.95,0.45,7.95-4.29c0,0,12.55,4.25,5.93-7.69c0,0,6.8-3.81-1.01-8.07l0.38-2.4
			c0,0,6.19-3.88,6.51-5.46c0,0,3.21,6.5,2.93,10.75c0,0,2.1,8.02,7.58,6.59c0,0,6.25-1.05,7.16,4.66c0,0,1.22,5.57,5.02,6.09
			c0,0,7.67,2.05,5.73,13.08C362.82,98.94,362.15,106.44,365.14,108.68z"/>
		<path class="st10" d="M263.67,55.29c0,0-4.75,7.78,4.58,6.87c0,0,9.49-0.58,9.35,1.84c0,0-20.51,6.25-9.88,11.98v1.98
			c0,0,4.02,2,2.14,9.62c0,0,1.74,4.51,4.79,3.28c0,0-0.22-2.76,2.65-2.77c0,0,5.08-2.43,1.51-4.2c0,0-5.44-1.14,1.26-4.5
			c0,0,3.51-5.8,2.9,1.64c0,0,2.04,6.17,4.54,0l0.76-6.05c0,0-2.24-1.93-2.77-4.33c0,0-3.04-2.95-0.88-5.01c0,0,1.43-2.66-1.64-3.78
			c0,0-3.75,0.1-5.3-4.92C277.68,56.93,274.5,54.51,263.67,55.29z"/>
		<path class="st10" d="M254.35,41.44c0,0,36.31-11.62,66.96-6.71l-5.87,2.18c0,0-6.78,9.47-3.66,11.33c0,0,1.3,5.44-1.61,6.89
			c0,0-4.47,4.66-3.05,7.98c0,0,0.68,4.33-2.51,0c0,0-0.47-4.07-4.36-4.98c0,0-2.43-5.48-4.78,0.5c0,0-4.97-2.24-5.73,1.61
			c0,0-3.61,0.61-4.26-3.02c0,0,0.65-2.07-1.3-1.94c0,0,0.51-4.34-19.24-3.4c0,0-1.81-8.09-2.49-8.3L254.35,41.44z"/>
		<path class="st11" d="M264.95,51.88c0,0-0.6,1.99-2.02,3.15c0,0,14.47-0.87,14.76,1.89c0,0,2.28,5.78,5.3,4.92
			c0,0,4.02,1.05,1.64,3.78c0,0-2.21,2.48,0.88,5.01c0,0,1.55,3.92,2.77,4.33c0,0,0.11,4.36-0.76,6.05c0,0-2.12,6.17-4.54,0
			c0,0,1.67-8.51-2.9-1.64c0,0-6.37,3.03-1.26,4.5c0,0,3.61,1.54-1.51,4.2c0,0-2.85,0.51-2.65,2.77c0,0-3.44,1.03-4.79-3.28
			c0,0,1.86-8.17-2.14-8.83l-2.65,4.67c0,0-1.64,1.5,0.25,3.53c0,0,1.86,3.5,0.58,4.12c0,0-1.86,1.85,0.18,4.09
			c0,0-0.62,4.49,2.52,4.4c0,0,1.19,3.1,3.28,3.66c0,0,5.05,0.53,4.92,3.25c0,0,2.65,3.63,6.05,0c0,0,5.23,1.13,6.33-0.6
			c0,0,4.4,6.92,7.67-2.4c0,0,4.79,3.48,6.56-4.67c0,0,7.6-1.37,11.22-13.12c0,0,6.56,0.45,7.95-4.29c0,0,12.68,3.73,5.93-7.69
			c0,0,7.32-3.81-1.01-8.07l0.38-2.4c0,0,5.93-3.1,6.51-5.46c0,0-1.36-3-3.43-2.49c0,0-9.28-2-9.69-9.55c0,0-2.82-6.85-5.83-8.82
			c0,0-7.55,10.14-2.95,11.99c0,0,0.46,6.13-2.26,6.13c0,0-4.07,3.64-3.27,7.2c0,0,0.8,6.54-2.31,0.97c0,0-0.95-4.39-4.17-4.91
			c0,0-3.09-5.97-4.9,0.38c0,0-5.44-2.46-5.7,1.55c0,0-4.09,0.85-4.44-3.01c0,0,0.56-2.17-1.26-1.91
			C284.19,55.29,280.82,49.91,264.95,51.88z"/>
		<path class="st11" d="M312.49,33.91c0,0,80.77,4.75,144.37,46.03c0,0-0.86,6.4,1.44,6.81c0,0,12.42,10.37,10.41,15.95
			c0,0-22.62-23.44-46.33-27.72c0,0-30.97-5.64-43.05,15.66l-1.09,3.13c0,0-1.05-0.98-5.73,6.96c0,0-9.1,18.54-9.67-1.79
			c0,0,3.18-6.46-4.85-12.81c0,0-5.49-0.95-5.86-6.17c0,0,0.41-5.55-5.94-5.01c-0.4,0.03-0.82,0.09-1.27,0.17
			c-7.67,1.42,0.87-0.14,0.87-0.14s-5.78,1.87-8.46-6.45c0,0-0.6-12.98-6.37-13.24c-5.77-0.26-10.25-7.05-9.69-9.55L317.55,40"/>
		<path class="st12" d="M357.77,358.86c0,0,61.64-8.51,91.69,7.8c0,0,20.2,9.03,33.23,1.92c3.44-1.88,6.38-4.88,8.32-9.47
			c0,0,4.97-14.49,4.97-17.86c0,0,0.7-5.84-6.17-2.58c0,0-13.74,2.23-29.19-7.73c0,0-17.68-11.85-36.4-10.82
			c0,0-22.77,0.73-20.78-1.65"/>
		<path class="st12" d="M482.69,368.57c0,0,7.12,24.52,11.07,27.61c0,0,16.31,25.75,16.14,30.05"/>
		<path class="st12" d="M491.01,359.1l18.89-7.73c0,0,9.1-2.75,8.58-9.79c0,0,5.15-7.73,12.19-8.93"/>
		<path class="st12" d="M521.64,253.85l20.53,31.42c0,0,8.07,9.44,5.49,25.07c0,0-1.2,26.1-6.87,32.96c0,0-0.2,0.64-0.66,1.59
			c-1.73,3.6-7.16,11.64-19.26,5.8l-5.99-1.96"/>
		<path class="st12" d="M546.29,355.67c0,0-4.75-9.88-6.15-10.78"/>
		<path class="st13" d="M198.17,299.03c0,0-28.49,5.93-44.36-13.49c0,0-6.22-12.22-33.14-5.8c0,0-17.35,5.89-29.53,6.88
			c0,0-6.48,4.86,4.86,7.35c0,0,6.09-0.34,26.91-7.68c0,0,9.1-4.28,14.75-4.42l5.95,1.59"/>
		<path class="st13" d="M147.75,300.35c0,0-18.72,0.96-23.07,7.06c0,0-7.4-2.61-20.89,6.53c0,0-14.36,1.31-22.2-3.92
			c0,0-11.42-9.59,3.92-13.49c0,0,19.48-4.75,25.17-6.51"/>
		<path class="st13" d="M77.51,324.38c0,0,7.57-10.88,23.24-5.66c0,0-1.74-5.22,3.05-4.79"/>
		<path class="st13" d="M81.56,320.62C71.51,314.68,62,319.14,62,319.14c-3.05-7.85-16.11-5.24-16.11-5.24
			c4.35,2.15,5.22,10.47,5.22,10.47s24.98,23.94,38.17,16.54c0,0,17.98-2.61,20.59-0.44"/>
		<path class="st13" d="M55.12,327.92"/>
		<path class="st13" d="M117.28,353.54"/>
		<path class="st13" d="M79.7,353.99c0,0,1.89,5.65,19.74,2.6c0,0,12.62-0.2,17.85,0.99"/>
		<path class="st13" d="M190.74,357.58c0,0-22.11-2.56-44.97-1.1c-10.16,0.65-20.46,2.09-29.03,4.9c0,0-15.15,7.26-28.47-3.99"/>
		<path class="st13" d="M212.02,337.87c0,0-5.77-9.37-68.32,18.6"/>
		<path class="st13" d="M46.33,310.16c0,0-3.04-5.8,12.19-5.8c0,0,18.44-1.8,19.17,0"/>
		<path class="st13" d="M188.67,518.66c0,0,2.18,12.04,16.11,9.87c0,0,10.45-1.74,13.93,6.09c0,0,15.9,7.83,25.58,0.87"/>
		<line class="st13" x1="396.29" y1="468.46" x2="425.46" y2="472.37"/>
		<path class="st13" d="M90.65,317.39c-0.95-2.64-9.93-0.41-9.93-0.41c-8.27-5.66-16.98-3.07-16.98-3.07
			c-3.67-3.82-11.32-3.89-11.32-3.89c-3.37-0.77-5.17-0.51-6.1,0.14c-1.71,1.2-0.43,3.75-0.43,3.75c-1.27-0.13-2.23-0.28-2.94-0.45
			c-4.95-1.2,2.48-3.3,2.48-3.3l0.7-0.61"/>
		<path class="st13" d="M42.96,313.45c0,0-2.37,3.15,7.83,8.98"/>
		<path class="st13" d="M49.65,321.76c0,0-6.23,5.16,9.73,17.16"/>
		<path class="st13" d="M80.21,308.64c0,0,13.63,0.8,15.47-5.08c0,0,2.24-5.89-1.58-6.55c0,0-4.65-1.67-13.38,1.34"/>
		<path class="st13" d="M309.52,95.16c0,0,19.7,11.98,22.03,18.04c0,0,1.93,6.58,11.94,3.95c0,0,19.55-2.94,21.65-8.47"/>
		<path class="st13" d="M254.35,41.44c0,0,3.94,1.27,8.2,1.86c5.34,0.73,11.17,0.39,10.36-4.88"/>
		<path class="st13" d="M267.72,78.75v-2.77c-4.69-2.71-3.04-5.44,0.15-7.61c3.78-2.58,9.73-4.37,9.73-4.37
			c0-2.24-9.35-1.84-9.35-1.84c-0.79,0.08-1.48,0.1-2.1,0.06c-6.56-0.36-2.48-6.93-2.48-6.93"/>
		<path class="st13" d="M266.14,62.22c0,0,2.14,3.01,1.73,6.15"/>
		<path class="st13" d="M56.55,332.58c0,0,2.57,9.7,14.17,17.17l6.78,3.42c0,0,4.01,1.55,9.4,0.37c0,0,24.42-1.52,30.37,0"/>
		<path class="st13" d="M55.12,327.92c0,0,2.35,9.3,3.51,4.67l-0.51-2.24"/>
		<path class="st13" d="M264.95,51.88c0,0-1.55-8.45-3.24-8.72"/>
		<path class="st14" d="M315.44,36.91c0,0-7.07,9.18-3.66,11.33c0,0,1.79,4.64-1.61,6.89c0,0-4.12,3.86-3.05,7.98
			c0,0,0.54,5.37-2.51,0c0,0-0.9-3.94-4.12-4.84c0,0-3.22-5.73-5.02,0.36c0,0-5.02-2.15-5.73,1.61c0,0-3.94,0.54-4.3-3.05
			c0,0,0.54-1.99-1.25-2.07c0,0-0.96-1.65-4.1-2.37c0,0-7.32-2.27-15.14-0.88c0,0-1.01,3.28-2.02,3.15c0,0,14-0.88,14.76,1.89
			c0,0,1.89,5.68,5.3,4.92c0,0,3.53,0.38,1.64,3.78c0,0-2.4,2.32,0.88,5.01c0,0,1.14,3.19,2.77,4.33c0,0,0,5.04-0.76,6.05
			c0,0-2.14,6.43-4.54,0c0,0,1.39-7.69-2.9-1.64c0,0-6.18,3.45-1.26,4.5c0,0,3.53,1.05-1.51,4.2c0,0-2.4,0.25-2.65,2.77
			c0,0-3.91,1.14-4.79-3.28c0,0,1.39-8.83-2.14-8.83c0,0-2.02,3.78-2.65,4.67c0,0-1.51,1.77,0.25,3.53c0,0,1.77,3.41,0.13,4.67
			c0,0-1.14,1.79,0.63,3.55c0,0-0.38,4.15,2.52,4.4c0,0,1.14,3.66,3.28,3.66c0,0,4.67,0.69,4.92,3.25c0,0,3.03,3.75,6.05,0
			c0,0,5.22,1.04,6.33-0.6c0,0,4.39,6.94,7.67-2.4c0,0,4.54,3.41,6.56-4.67c0,0,8.07-2.4,11.22-13.12c0,0,6.31,0.5,7.95-4.29
			c0,0,12.61,3.53,5.93-7.69c0,0,7.44-3.91-1.01-8.07l0.38-2.4c0,0,6.34-3.61,6.51-5.46"/>
		<path class="st15" d="M440.69,125.46l16.11,14.8c9.58,3.92,7.83,15.23,7.83,15.23l2.18,17.85c13.93,19.15,3.92,46.57,3.92,46.57
			c-12.19,13.06-14.8,17.41-14.8,17.41c-9.14,60.07-50.49,78.78-50.49,78.78c-28.29,34.39-80.09,63.99-80.09,63.99
			c-5.22,13.93-77.48,37.43-77.48,37.43c5.66-19.59-23.5-62.68-23.5-62.68c-26.99-30.9-26.99-62.68-26.99-62.68
			c13.49,9.58,46.14-5.66,46.14-5.66c13.49-9.58,33.52-4.79,33.52-4.79c5.66-15.67,4.79-30.9,4.79-30.9
			c-1.74-6.96,4.35-13.06,4.35-13.06c3.92-2.18,5.22-7.83,5.22-7.83c-0.87-6.96,3.79-12.19,3.79-12.19
			c2.48-3.48,0.57-11.75,0.57-11.75c-3.48-10.45,10.25-34.82,10.25-34.82c-3.24-31.78,11.07-41.35,11.07-41.35
			c-2.18-7.83,12.17-19.9,12.17-19.9"/>
		<path class="st15" d="M355.38,273.38c0,0-30.47-38.23-55.72,2.69c0,0-5.32,6.56-22.63,5.66"/>
		<path class="st15" d="M500.76,328.73l6.09,3.48c0,0,7.4,6.96,10.45-3.48c0,0,17.41-50.93,2.18-79.66c0,0-16.11-69.21-13.49-72.69
			c0,0-16.54-84.44-84.01-101.42c0,0-30.47-5.66-42.66,15.67c0,0-4.35,15.23-16.54,25.68c0,0-16.98,18.28-11.75,35.26
			c0,0-7.66,11.75-1,23.5c0,0-7.27,17.85,5.35,23.94c0,0,5.22,1.31-3.48,8.27c0,0-8.71,2.61,0.87,18.72c0,0-1.78,10.01-5.46,7.83
			c0,0,5.02,10.88-2.38,10.01c0,0-7.64,0.8-4.35,10.01c0,0,2.99,6.74-4.79,5.05"/>
		<path class="st15" d="M321.86,129.38c0,0-6.09,14.36-2.18,22.2c0,0,6.53,10.45,2.18,23.94c0,0-11.75,20.02,5.22,46.57
			c0,0,7.96,34.96,2.61,35.06"/>
		<path class="st15" d="M495.97,337.87c0,0,31.34-46.72,4.79-133.49"/>
		<path class="st15" d="M180.83,343.1c0,0,68.01,101.88,67.74,69.66"/>
		<path class="st15" d="M167.78,356.59c0,0,38.44,32.65,61.22,67.03c0,0,23.22,23.07,14.95-4.57"/>
		<path class="st15" d="M335.79,373.73c0,0-31.7,36.16-90.06,58.92"/>
		<path class="st15" d="M389.77,366.17c0,0-39.61-10.45-44.83,23.94c0,0-7.83,26.6-23.94,13.08c0,0-5.22-9.16-20.89,12.16
			c0,0-15.18,29.16-29.16,20.89c0,0-8.27,1.74-12.19,10.45c0,0-13.49,19.15-19.59,25.25c0,0-14.36,9.14-17.85,27.86h4.79
			c0,0-1.19,36.13,22.47,36.13c0,0,30.24,13.06,57.42-3.48c0,0,54.6-6.53,58.52-19.15c0,0,14.36,8.27,10.45-5.22"/>
		<path class="st15" d="M369.31,465.41c0,0,24.38-2.61,26.99,3.05c0,0-9.58,16.98,0,40.92"/>
		<path class="st15" d="M454.62,478.9c-13.06,0.87-58.33-30.9-58.33-30.9"/>
		<polyline class="st15" points="425.46,497.62 425.46,472.37 435.8,472.37 		"/>
		<path class="st15" d="M226.7,509.37c0,0-58.49,20.89-51.96,0c0,0-4.35-23.91,6.09-30.45c0,0,3.48-4.37,1.74-9.59
			c0,0-3.78-11.32,46.43-45.7"/>
		<path class="st14" d="M312.49,33.91c0,0,7.88,7.34,8.78,11.82c0,0-0.36,6.07,8.96,9.39c0,0,5.47-1.28,6.94,12.66
			c0,0,1.3,8.03,7.75,7.32c0,0,6.45-1.61,7.16,4.66c0,0,0.9,5.19,5.02,6.09c0,0,7.7,2.51,5.73,13.08c0,0-0.54,19.88,9.67,1.79
			c0,0,4.11-7.11,5.73-6.96"/>
	</g>
</g>
<g id="Layer_9">
</g>
<g id="Layer_10">
</g>
<g id="Layer_11">
</g>
<g id="Layer_7">
</g>
<g id="Layer_6">
</g>
<g id="Layer_5">
</g>
<g id="skin_outline">
</g>
<g id="robe_outline">
</g>
<g id="Layer_13">
</g>
<g id="Layer_4">
</g>
</svg>
